<?xml version="1.0" encoding="UTF-8"?>
<svg width="80px" height="80px" viewBox="0 0 80 80" version="1.1" xmlns="http://www.w3.org/2000/svg" xmlns:xlink="http://www.w3.org/1999/xlink">
    <!-- Generator: Sketch 63.1 (92452) - https://sketch.com -->
    <title>Group 47</title>
    <desc>Created with Sketch.</desc>
    <defs>
        <linearGradient x1="39.3532986%" y1="-0.9%" x2="67.5560764%" y2="89.4444444%" id="linearGradient-1">
            <stop stop-color="#37C87C" offset="0%"></stop>
            <stop stop-color="#2FA894" offset="55%"></stop>
            <stop stop-color="#2EA598" offset="71%"></stop>
            <stop stop-color="#2A9CA4" offset="88%"></stop>
            <stop stop-color="#2692B1" offset="100%"></stop>
        </linearGradient>
        <linearGradient x1="0%" y1="49.9040307%" x2="100%" y2="49.9040307%" id="linearGradient-2">
            <stop stop-color="#1875A0" offset="0%"></stop>
            <stop stop-color="#57CC7A" offset="100%"></stop>
        </linearGradient>
    </defs>
    <g id="Desktop-Version" stroke="none" stroke-width="1" fill="none" fill-rule="evenodd">
        <g id="Group-47">
            <path d="M40,80 C62.0913887,80 80,62.0913887 80,40 C80,17.9086101 62.0913887,0 40,0 C17.9086101,0 0,17.9086101 0,40 C0,62.0913887 17.9086101,80 40,80 Z" id="Ellipse-10" fill="#D9FFEF"></path>
            <g id="tookan_1" transform="translate(28.417582, 23.186813)" fill-rule="nonzero">
                <path d="M9.09967033,27.1981319 L9.1743956,17.1401099 L16.9047253,26.2248352 L16.9047253,25.2608791 C16.9682418,23.3161538 17.0037363,20.0301099 17.0037363,19.6284615 C16.9913808,18.7857355 16.8644291,17.9486081 16.6263736,17.1401099 C15.5727473,13.4225275 12.4679121,8.7989011 8.23659341,6.64681319 L8.23659341,6.66736264 C8.22879762,6.65546611 8.22005108,6.64422055 8.21043956,6.63373626 L8.11142857,6.58142857 L14.6218681,6.58142857 L14.662967,6.61131868 L15.6306593,6.61131868 C19.0810989,6.61131868 23.1181319,6.84483516 23.1181319,7.95637363 C23.1181319,0 14.5714286,0 14.5714286,0 L8.11142857,0 L8.11142857,0.028021978 C7.67241758,0.0224175824 1.98956044,-0.0261538462 0,0.028021978 L0.0373626374,16.419011 C0,16.419011 8.79516484,26.959011 8.79516484,26.973956 L8.79516484,27.1047253 L8.86802198,27.1047253 L8.86802198,33.6263736 L23.0097802,33.6263736 L17.6650549,27.1981319 L9.09967033,27.1981319 Z M23.0882418,7.75087912 C23.0620879,7.69857143 23.0321978,7.65 23.0041758,7.59956044 C23.04868,7.63890044 23.0783515,7.6923092 23.0882418,7.75087912 L23.0882418,7.75087912 Z" id="Shape" fill="url(#linearGradient-1)"></path>
                <polygon id="Path" fill="url(#linearGradient-2)" points="17.7341758 27.1981319 17.6650549 27.1981319 16.9047253 26.2827473 16.9047253 26.2248352"></polygon>
            </g>
        </g>
    </g>
</svg>