<svg xmlns="http://www.w3.org/2000/svg" width="80" height="81" viewBox="0 0 80 81">
    <defs>
        <linearGradient id="yn1mdnkpoa" x1="56.328%" x2="48.323%" y1="-106.764%" y2="71.554%">
            <stop offset="0%" stop-color="#FDC660"/>
            <stop offset="100%" stop-color="#FC7228"/>
        </linearGradient>
        <linearGradient id="iqq81xs0db" x1="48.997%" x2="51.422%" y1="84.702%" y2="38.755%">
            <stop offset="0%" stop-color="#FDC660"/>
            <stop offset="100%" stop-color="#FC7228"/>
        </linearGradient>
        <linearGradient id="yrvo7maglc" x1="51.621%" x2="48.45%" y1="-44.446%" y2="85.374%">
            <stop offset="0%" stop-color="#FDC660"/>
            <stop offset="100%" stop-color="#FC7228"/>
        </linearGradient>
    </defs>
    <g fill="none" fill-rule="evenodd">
        <g>
            <g>
                <g fill="#FFF2D8">
                    <path d="M40 80c22.091 0 40-17.909 40-40S62.091 0 40 0 0 17.909 0 40s17.909 40 40 40z" transform="translate(-132 -2421) translate(132.002 2421.025)"/>
                </g>
                <g fill-rule="nonzero">
                    <g>
                        <path fill="url(#yn1mdnkpoa)" d="M15.361 21.684c-1.124-.595-2.183-1.162-3.309-1.755-1.315 1.768-2.937 3.343-5.104 4.324 1.085 1.555 2.151 3.07 3.244 4.645h-.069v.033h3.627l-3.489-.024h3.49c-.053-.011-.1-.04-.134-.08-.322-.457-.78-.617-1.286-.715-.139-.029-.26-.11-.338-.229-.449-.865-.875-1.74-1.309-2.612.817-.57 1.645-1.108 2.426-1.704.782-.597 1.515-1.264 2.251-1.883z" transform="translate(-132 -2421) translate(132.002 2421.025) translate(23 25) translate(.47 .007)"/>
                        <path fill="url(#iqq81xs0db)" d="M29.595 6.852l.116-.1 1.608 1.037c-.433-.643-.817-1.296-1.272-1.89-.723-.988-1.635-1.823-2.682-2.457-.328-.355-.707-.659-1.125-.902l1.05-.39c-.633-.289-1.254-.58-1.883-.858-.628-.278-1.228-.529-1.839-.787l.804-.161c0-.077 0-.16.013-.233-.863-.021-1.769-.22-2.572-.028-1.54.369-3.293.41-4.214 2.113-.18.33-.643.495-.952.773-.141.165-.257.35-.344.55-.177.322-.297.69-.535.95-.272.294-.643.482-1.01.75.439 1.345 1.296 1.929 2.717 1.734l-.733.45c.235.613.116 1.392 1.045 1.685.31-.746.588-1.494.934-2.209.103-.212.392-.334.596-.5.03.274.03.55 0 .823-.07.208-.179.4-.321.566-.602.867-.855 1.93-.706 2.974l-.01.015c.21.143 1.473.032 1.473.032-1.223 1.207-3.246 1.363-4.839 1.641-.95.161-1.895.364-2.828.61-1.864.472-3.657 1.191-5.33 2.138-.116.071-.253.099-.387.077-1.259-.402-1.94-1.125-1.89-2.572.017-.483.209-.904.635-1.098.516-.26 1.07-.436 1.643-.521 1.286-.137 2.572-.148 3.868-.256.478-.03.948-.142 1.389-.331.67-.305.915-.912.858-1.637-.051-.631-.395-1.064-1.098-1.244-.461-.117-.951-.119-1.426-.191-.142-.01-.277-.066-.384-.161-1.084-1.328-2.821-1.325-4.304.305.238.19.468.393.714.566 1.338.94 2.682.758 3.588-.361.082-.092.2-.144.322-.142.489.054.972.146 1.447.275.467.107.787.54.754 1.018.025.5-.274.959-.741 1.138-.246.101-.51.156-.775.16-1.076 0-2.153-.028-3.232-.019-.645-.013-1.29.026-1.929.116-1.096.187-2.017.703-2.347 1.843-.363 1.252-.064 2.845 1.219 3.77.17.123.339.249.42.31-.32.723-.682 1.38-.901 2.09-.514 1.683-1.547 3.16-2.952 4.22-.286.204-.46.53-.47.88-.113 1.303-.308 2.59-.77 3.826-.02.127.008.256.08.363.239.421.496.834.795 1.33h3.026v-.047c-.22-.783-.87-1.098-1.625-1.352.23-1.024.458-2.044.683-3.055 4.104-.022 6.79-2.333 8.97-5.382.91.524 1.796 1.077 2.722 1.554.926.478 1.973.714 3.143.819-.106.591-.218 1.154-.302 1.721-.041.2-.03.408.032.603.492 1.184.922 2.386 1.08 3.667.03.222.084.494-.012.666-.19.284-.414.542-.667.77v.024h2.842v-.022h-.045c.16-.348.383-.643.418-.965.035-.321-.127-.659-.191-.992-.31-1.567-.298-3.103.503-4.543.097-.155.237-.279.403-.355.55-.262 1.126-.465 1.668-.74 2.141-1.084 4.06-2.455 5.425-4.47.49-.726.854-1.536 1.312-2.377.13.38.237.767.322 1.16.044.391.064.786.061 1.18 1.88-3.538 1.383-6.835-1.055-9.944z" transform="translate(-132 -2421) translate(132.002 2421.025) translate(23 25) translate(.47 .007)"/>
                        <path fill="url(#yrvo7maglc)" d="M27.24 21.428c.482-.728 1.003-1.434 1.463-2.175.527-.835.923-1.746 1.175-2.7-1.533 2.453-3.75 4.109-6.287 5.385.043.098.069.16.096.212.812 1.612 1.033 3.457.624 5.214-.012.145.015.29.079.421.14.367.299.727.46 1.114h-.062v.02h4.145c-.172-.032-.332-.11-.463-.225-.38-.263-.73-.578-1.125-.804-.195-.11-.336-.179-.348-.417 0-.15-.045-.3-.06-.45-.17-1.725-.038-3.445.11-5.162.03-.157.095-.306.193-.433z" transform="translate(-132 -2421) translate(132.002 2421.025) translate(23 25) translate(.47 .007)"/>
                    </g>
                </g>
            </g>
        </g>
    </g>
</svg>
