<?xml version="1.0" encoding="UTF-8"?>
<svg width="81px" height="81px" viewBox="0 0 81 81" version="1.1" xmlns="http://www.w3.org/2000/svg" xmlns:xlink="http://www.w3.org/1999/xlink">
    <!-- Generator: Sketch 63.1 (92452) - https://sketch.com -->
    <title>Group 46</title>
    <desc>Created with Sketch.</desc>
    <defs>
        <linearGradient x1="49.3512905%" y1="37.4547729%" x2="51.2242574%" y2="78.8895545%" id="linearGradient-1">
            <stop stop-color="#1B899E" offset="0%"></stop>
            <stop stop-color="#19819F" offset="9%"></stop>
            <stop stop-color="#136FA2" offset="38%"></stop>
            <stop stop-color="#1064A4" offset="68%"></stop>
            <stop stop-color="#0F60A5" offset="100%"></stop>
        </linearGradient>
    </defs>
    <g id="Desktop-Version" stroke="none" stroke-width="1" fill="none" fill-rule="evenodd">
        <g id="Group-46" transform="translate(0.170330, 0.406593)">
            <path d="M40,80 C62.0913887,80 80,62.0913887 80,40 C80,17.9086101 62.0913887,0 40,0 C17.9086101,0 0,17.9086101 0,40 C0,62.0913887 17.9086101,80 40,80 Z" id="Ellipse-10" fill="#DBFAFF"></path>
            <g id="hippo_1" transform="translate(19.170330, 23.093407)" fill="url(#linearGradient-1)" fill-rule="nonzero">
                <path d="M0.0242857143,15.8174725 C-0.136373626,14.7769231 0.536153846,13.6765934 1.63274725,13.2020879 C2.40273522,12.8542873 3.2759996,12.8115588 4.07626374,13.0825275 C6.18912088,13.7868132 8.05912088,12.6005495 8.33186813,10.4017582 C8.48505495,9.16692308 7.72659341,7.69296703 6.52912088,7.13252747 C5.57894906,6.71041208 4.6081643,6.33631391 3.62043956,6.01164835 C1.99516484,5.45120879 1.32637363,4.21076923 1.79527473,2.53879121 C2.35571429,0.541758242 4.15659341,-0.0840659341 5.79120879,0.00934065934 C5.91450549,0.00934065934 6.04527473,0.173736264 6.14615385,0.283956044 C6.96626374,1.18065934 7.75461538,2.10912088 8.60648352,2.9721978 C8.94835165,3.3178022 9.41725275,3.54758242 9.85252747,3.78857143 C10.501273,4.13714905 11.256946,4.23044203 11.970989,4.05010989 C13.2450549,3.78483516 13.8036264,4.13791209 14.28,5.3578022 C14.3042857,5.42131868 14.3341758,5.48296703 14.3958242,5.62868132 C14.6573626,4.69461538 15.1953846,4.1621978 16.0771429,4.0332967 C16.6076923,3.9567033 17.2110989,4.01461538 17.4763736,4.46857143 C17.7416484,4.92252747 17.5006593,5.49417582 17.1494505,5.88835165 C16.858022,6.21527473 16.461978,6.44879121 16.0995604,6.73087912 C16.2452747,6.81868132 16.4731868,6.96252747 16.7010989,7.10450549 C19.649011,8.84 22.8173626,9.70681319 26.2491209,9.43967033 C27.6352747,9.33131868 29.013956,9.12021978 30.3982418,8.97450549 C33.4395604,8.64197802 36.110989,9.52747253 38.349011,11.6216484 C40.0303297,13.1946154 40.998022,15.1561538 41.3772527,17.439011 C41.6967033,19.3725275 41.6014286,21.2985714 41.4725275,23.2302198 C41.423956,23.9438462 41.3697802,24.6556044 41.3137363,25.4159341 C40.6823077,25.1898901 40.4936264,24.6686813 40.2507692,24.0652747 C39.3951339,27.176932 39.022766,30.4016004 39.1467033,33.6263736 L34.1718681,33.6263736 C33.9476923,32.4774725 33.7328571,31.3435165 33.4993407,30.2151648 C33.4152747,29.8135165 33.2695604,29.4268132 33.1742857,29.0289011 C33.1163736,28.7804396 33.0024176,28.7001099 32.7446154,28.7337363 C30.6112088,29.0176923 28.602967,28.6067033 26.6675824,27.5736264 C25.6550549,29.466044 25.2197802,31.5135165 24.9115385,33.6282418 L20.0095604,33.6282418 C20.0095604,33.4302198 20.0095604,33.2321978 20.0095604,33.0341758 C20.0469231,30.5589011 19.691978,28.1508791 18.7186813,25.8586813 C17.4950549,22.978022 15.4550549,20.8147253 12.8508791,19.1334066 C10.9213492,17.8669675 8.7998203,16.9207013 6.56835165,16.3312088 C4.68700526,15.8497767 2.74030588,15.6750406 0.803296703,15.8137363 C0.582857143,15.8286813 0.364285714,15.838022 0.143846154,15.8454945 C0.102856565,15.8419265 0.0625919605,15.8324895 0.0242857143,15.8174725 Z" id="Path"></path>
            </g>
        </g>
    </g>
</svg>