<?xml version="1.0" encoding="UTF-8"?>
<svg width="50px" height="51px" viewBox="0 0 50 51" version="1.1" xmlns="http://www.w3.org/2000/svg" xmlns:xlink="http://www.w3.org/1999/xlink">
    <!-- Generator: Sketch 63.1 (92452) - https://sketch.com -->
    <title>d2c_ic</title>
    <desc>Created with Sketch.</desc>
    <g id="Desktop-Version" stroke="none" stroke-width="1" fill="none" fill-rule="evenodd">
        <g id="Yelo_Home_NewV" transform="translate(-766.000000, -1198.000000)">
            <g id="d2c_ic" transform="translate(766.000000, 1198.106934)">
                <path d="M25,50 C38.8071179,50 50,38.8071179 50,25 C50,11.1928813 38.8071179,0 25,0 C11.1928813,0 0,11.1928813 0,25 C0,38.8071179 11.1928813,50 25,50 Z" id="Ellipse-21" fill="#E5F1FF"></path>
                <g id="git-3" transform="translate(12.500000, 12.500000)">
                    <path d="M0,0 L25,0 L25,25 L0,25 L0,0 Z" id="Rectangle_58" opacity="9.99999975e-05"></path>
                    <path d="M15.6250128,11.4580094 C16.775491,11.4580094 17.7081385,10.5253627 17.7081385,9.37488436 L17.7081385,8.33300948 L19.7912633,8.33300948 L19.7912633,9.37488436 C19.7912633,11.6761859 17.9256912,13.5417592 15.6243886,13.5417592 L7.29126379,13.5417592 L7.29126379,15.6248847 C7.27741527,16.190188 6.81517155,16.6412449 6.24969995,16.6412449 C5.68422831,16.6412449 5.22198588,16.1901861 5.20813853,15.6248832 L5.20813853,9.37488436 C5.19887358,8.99668877 5.39534301,8.64318731 5.7214141,8.45136285 C6.04748518,8.25953931 6.45191489,8.259539 6.77798663,8.45136226 C7.10405804,8.64318551 7.30052816,8.99668634 7.29126379,9.37488386 L7.29126379,11.4580094 L15.6250128,11.4580094 Z" id="Path_154" fill="#377DFF" opacity="0.300000012"></path>
                    <path d="M6.25000477,15.6243896 C8.55130658,15.6243896 10.4168797,17.4899637 10.4168797,19.791266 C10.4168797,22.022829 8.66265898,23.8446742 6.45797483,23.9530399 L6.25000477,23.9581394 C3.94870283,23.9581394 2.08312988,22.0925668 2.08312988,19.7912645 C2.08312988,17.4899626 3.94870345,15.6243896 6.25000477,15.6243896 Z M6.24999473,17.7087402 C5.09951657,17.7087402 4.16687012,18.6413872 4.16687012,19.7918666 C4.16687012,20.8923228 5.02017974,21.793479 6.101226,21.8697601 L6.24999523,21.8749905 C7.4004734,21.8749905 8.33312035,20.9423435 8.33312035,19.7918653 C8.33312035,18.6413872 7.4004734,17.7087402 6.24999473,17.7087402 Z" id="Path_155" fill="#377DFF"></path>
                    <path d="M18.7500048,1.04125977 C21.0513071,1.04125977 22.9168797,2.90683383 22.9168797,5.20813564 C22.9168797,7.43969912 21.162659,9.26154433 18.9579753,9.36991 L18.7500048,9.37500954 C16.4487028,9.37500954 14.5831299,7.50943647 14.5831299,5.2081344 C14.5831299,2.90683284 16.4487028,1.04125977 18.7500048,1.04125977 Z M18.7499952,3.12561035 C17.5995171,3.12561035 16.6668701,4.05825798 16.6668701,5.20873621 C16.6668701,6.30919287 17.5201804,7.21034907 18.601227,7.28663022 L18.7499952,7.29186058 C19.9004734,7.29186058 20.8331203,6.35921363 20.8331203,5.20873522 C20.8331203,4.05825699 19.9004734,3.12561035 18.7499952,3.12561035 Z" id="Path_156" fill="#377DFF"></path>
                    <path d="M6.25000477,1.04125977 C8.55130658,1.04125977 10.4168797,2.90683383 10.4168797,5.20813564 C10.4168797,7.43969912 8.66265898,9.26154433 6.45797483,9.36991 L6.25000477,9.37500954 C3.94870283,9.37500954 2.08312988,7.50943647 2.08312988,5.2081344 C2.08312988,2.90683284 3.94870345,1.04125977 6.25000477,1.04125977 Z M6.24917691,3.12561035 C5.09877982,3.12572539 4.16625977,4.05833787 4.16625977,5.20873492 C4.16625977,5.76132295 4.38581709,6.29126844 4.77661433,6.68194821 C5.12398942,7.02921868 5.58136166,7.2411557 6.06681104,7.28384937 L6.25000967,7.29185998 C7.40040664,7.29151481 8.33273995,6.35871577 8.33250999,5.20831872 C8.33228004,4.05792168 7.3995735,3.12549531 6.24917691,3.12561035 Z" id="Path_157" fill="#377DFF"></path>
                </g>
            </g>
        </g>
    </g>
</svg>