<svg width="60" height="60" viewBox="0 0 60 60" fill="none" xmlns="http://www.w3.org/2000/svg">
    <circle cx="30" cy="30" r="30" fill="#FFE3DE"/>
    <path fill-rule="evenodd" clip-rule="evenodd" d="M28.902 31.46v-7.554c0-.528.457-.955 1.021-.955.564 0 1.02.427 1.02.955v6.765l5.061 4.733 2.235-2.09a.537.537 0 0 1 .556-.103c.19.074.315.248.315.44v5.052c0 .263-.228.477-.51.477h-5.4a.513.513 0 0 1-.473-.293.455.455 0 0 1 .108-.52l1.726-1.613-5.659-5.293z" fill="#FF715B"/>
    <path opacity=".3" fill-rule="evenodd" clip-rule="evenodd" d="M27.113 38.365a.455.455 0 0 1 .11.52.512.512 0 0 1-.471.295h-5.475c-.282 0-.51-.214-.51-.477v-5.121c0-.193.124-.367.315-.44a.537.537 0 0 1 .556.102L23.62 35.1l4.018-3.313 1.32 1.458-3.89 3.21 2.044 1.91z" fill="#FF715B"/>
    <circle cx="30.375" cy="19.875" r="5.625" fill="#FF715B"/>
    <path d="M32.25 19.875c0 .393-.082.73-.247 1.01-.163.28-.387.494-.67.642a2.023 2.023 0 0 1-.958.223c-.357 0-.677-.074-.96-.223a1.68 1.68 0 0 1-.67-.643c-.163-.28-.245-.617-.245-1.009 0-.393.082-.73.245-1.009.165-.28.388-.495.67-.643.283-.149.603-.223.96-.223s.677.074.958.223c.283.148.507.363.67.643.165.28.247.616.247 1.009zm-.743 0c0-.277-.049-.51-.146-.7a.998.998 0 0 0-.398-.434 1.15 1.15 0 0 0-.588-.148c-.222 0-.418.05-.588.148a1.01 1.01 0 0 0-.4.433c-.096.19-.144.424-.144.701 0 .277.048.51.144.702.097.19.23.335.4.433.17.098.366.146.588.146.222 0 .418-.048.588-.146a1.01 1.01 0 0 0 .398-.433 1.54 1.54 0 0 0 .146-.702z" fill="#FFE3DE"/>
    <circle cx="38.625" cy="38.625" r="5.625" fill="#FF715B"/>
    <circle cx="21.625" cy="38.625" r="5.625" fill="#FFC1B7"/>
    <path d="M21.733 40.5H20.5v-3.75h1.258c.362 0 .672.075.932.225.26.15.46.363.6.643.14.28.21.614.21 1.003 0 .391-.07.727-.212 1.007-.14.281-.341.497-.605.647-.264.15-.58.225-.95.225zm-.574-.588h.542c.254 0 .465-.047.635-.143a.904.904 0 0 0 .382-.43c.085-.191.128-.43.128-.718 0-.287-.043-.525-.128-.714a.89.89 0 0 0-.378-.426 1.227 1.227 0 0 0-.619-.143h-.562v2.574z" fill="#FF715B"/>
    <path d="M36.75 36.75h.793l1.061 2.717h.042l1.061-2.717h.793v3.75h-.621v-2.576h-.034l-.988 2.565h-.464l-.988-2.57h-.034V40.5h-.621v-3.75z" fill="#FFE3DE"/>
</svg>
