<?xml version="1.0" encoding="UTF-8"?>
<svg width="51px" height="51px" viewBox="0 0 51 51" version="1.1" xmlns="http://www.w3.org/2000/svg" xmlns:xlink="http://www.w3.org/1999/xlink">
    <!-- Generator: Sketch 63.1 (92452) - https://sketch.com -->
    <title>hyperlocal_ic</title>
    <desc>Created with Sketch.</desc>
    <g id="Desktop-Version" stroke="none" stroke-width="1" fill="none" fill-rule="evenodd">
        <g id="Yelo_Home_NewV" transform="translate(-131.000000, -1198.000000)">
            <g id="hyperlocal_ic" transform="translate(131.250977, 1198.106934)">
                <path d="M25,50 C38.8071179,50 50,38.8071179 50,25 C50,11.1928813 38.8071179,0 25,0 C11.1928813,0 0,11.1928813 0,25 C0,38.8071179 11.1928813,50 25,50 Z" id="Ellipse-19" fill="#FFF2D8"></path>
                <g id="select" transform="translate(11.875000, 12.246704)">
                    <path d="M25.8781242,0 L25.8781242,25.8781242 L0,25.8781242 L0,0 L25.8781242,0 Z" id="Path_160" opacity="9.99999975e-05"></path>
                    <path d="M19.9481285,17.2523499 C21.4368809,17.2523499 22.6437533,18.4592235 22.6437533,19.947976 C22.6430541,21.380733 21.5266591,22.5511162 20.1172892,22.6383794 L19.9468633,22.6428633 L19.7776516,22.6382962 C18.3683228,22.5503462 17.2525024,21.3794673 17.2525024,19.9479736 C17.2525024,18.4592212 18.4593761,17.2523499 19.9481285,17.2523499 Z M6.96213861,17.4575448 C7.96942505,17.8747761 8.62619281,18.8576987 8.62619281,19.9479773 C8.62619281,21.3794698 7.51037092,22.5503486 6.10104339,22.6382986 L5.93056757,22.6436019 C4.84028925,22.6436019 3.85736568,21.9868352 3.44013422,20.9795477 C3.02290262,19.9722612 3.25352937,18.8128258 4.02447313,18.0418825 C4.79541666,17.2709394 5.95485282,17.0403123 6.96213861,17.4575448 Z M19.9481285,3.23486328 C21.4368809,3.23486328 22.6437533,4.4417374 22.6437533,5.93049036 C22.6437533,7.36198058 21.5279319,8.53285959 20.1186041,8.62080962 L19.9481272,8.62611294 C18.4593737,8.62611294 17.2525024,7.41924019 17.2525024,5.93048747 C17.2525024,4.44173483 18.4593761,3.23486328 19.9481285,3.23486328 Z" id="Path_161" fill="#FFBE3D" opacity="0.300000012"></path>
                    <path d="M14.0174867,19.409256 C14.61257,19.4097364 15.0947452,19.8922729 15.0947452,20.4873562 C15.0947452,21.0824406 14.6126211,21.565001 14.0175381,21.5655065 L11.8599857,21.5655065 C11.2645531,21.5655065 10.7818604,21.0828137 10.7818604,20.4873812 C10.7818604,19.8919487 11.2645537,19.409256 11.8599857,19.409256 L14.0174867,19.409256 Z M5.39115967,10.7830048 C5.98634785,10.7826596 6.46921938,11.2646919 6.46990955,11.8598794 L6.46990955,14.0161298 C6.46970391,14.6114349 5.98707143,15.0939012 5.39178461,15.0939012 C4.79649814,15.0939012 4.3138653,14.6114349 4.31365967,14.0161478 L4.31365967,11.8598794 C4.31435088,11.304741 4.7344045,10.8480395 5.27392169,10.7893743 L5.39115967,10.7830048 Z M20.4866815,10.7830048 C21.0818696,10.7826608 21.5647412,11.2646931 21.5654302,11.8598799 L21.5654302,14.0161304 C21.5654302,14.6115628 21.0827374,15.0942552 20.4873049,15.0942552 C19.8918724,15.0942552 19.4091797,14.6115628 19.4091797,14.0161304 L19.4091797,11.8598799 C19.4098902,11.2658679 19.8908794,10.7843578 20.484848,10.7830048 L20.4866815,10.7830048 Z M5.93048838,3.23486328 C7.41924143,3.23486328 8.62611413,4.44173587 8.62611413,5.93048907 C8.62611413,7.36198115 7.51029248,8.53285964 6.10096429,8.62080962 L5.93048806,8.62611294 C4.44173542,8.62611294 3.23486328,7.41924083 3.23486328,5.93048811 C3.23486328,4.44173547 4.44173574,3.23486328 5.93048838,3.23486328 Z M14.0174378,4.31362152 C14.6126914,4.31389779 15.0950623,4.79653685 15.0950623,5.39179095 C15.0950623,5.98704496 14.6126022,6.46964473 14.0173484,6.4698717 L11.8599368,6.4698717 C11.2646503,6.46967635 10.7821655,5.98705177 10.7821655,5.39176525 C10.7821655,4.79647847 11.2646133,4.31383759 11.8598999,4.31362152 L14.0174378,4.31362152 Z" id="Path_162" fill="#FFBE3D"></path>
                </g>
            </g>
        </g>
    </g>
</svg>