<svg width="376" height="89" xmlns="http://www.w3.org/2000/svg">
    <g fill="none" fill-rule="evenodd">
        <path d="M332.747 88.487c28.62-1.156 42.733-19.25 42.733-42.999 0-23.747-14.113-42.998-42.733-42.998-28.62 0-5.747 28.678-33.132 33.009-27.384 4.33 4.511 54.145 33.132 52.988z" fill="#E5F1FF"/>
        <path fill="#E0A396" fill-rule="nonzero" d="m322.637 70.175-1.681-3.043 5.037-2.612 1.679 3.044z"/>
        <path d="m321.174 66.287 2.443 3.913s-.833.58-.195 1.898c.639 1.317.395 2.396-.45 3.026l-4.844-7.756a16.828 16.828 0 0 1 3.046-1.08z" fill="#FFF" fill-rule="nonzero"/>
        <path fill="#070924" fill-rule="nonzero" d="m318.282 67.912 4.649 7.91-.55.341-4.648-7.91z"/>
        <path d="M320.022 66.64s.751 1.442-.48 2.122" stroke="#070924" stroke-width=".81"/>
        <path d="M323.43 70.882s-.126-.171-.707-.353M323.43 71.59a1.156 1.156 0 0 0-.707-.354" stroke="#070924" stroke-width=".81" stroke-linecap="round" stroke-linejoin="round"/>
        <path d="M332.235 42.251s2.917 11.425 3.345 13.679c.428 2.254 1.289 6.757-.515 8.381-1.805 1.624-8.725 5.511-8.725 5.511l-2.547-4.797 4.112-2.591 4.33-20.183z" fill="#1C3259" fill-rule="nonzero"/>
        <path fill="#E0A396" fill-rule="nonzero" d="M328.853 77.952h-3.302l.586-6.01h3.302z"/>
        <path d="M325.083 76.892h4.458s.074.908 1.485 1.047c1.41.14 2.194.839 2.301 1.78h-8.837c.098-.958.297-1.906.593-2.827z" fill="#FFF" fill-rule="nonzero"/>
        <path fill="#070924" fill-rule="nonzero" d="M324.49 80.073h8.837v1h-8.837z"/>
        <path d="M324.844 78.305s1.767.194 1.767 1.768" stroke="#070924" stroke-width=".81"/>
        <path d="M329.793 77.952s-.236 0-.707.353M330.5 77.952c-.275.022-.529.15-.707.353" stroke="#070924" stroke-width=".81" stroke-linecap="round" stroke-linejoin="round"/>
        <path d="m333.327 46.14-1-3.889-5.543.031c-2.771 1.894-1.76 8.09-1.76 8.09.33 3.34 1.208 6.406 1.27 9.152l-1.439 14.893h5.158l2.466-13.206a9.649 9.649 0 0 0 .142-1.83l-.194-11.255.9-1.985z" fill="#233E80" fill-rule="nonzero"/>
        <path d="m332.62 36.829 4.54.12a1.902 1.902 0 0 0 1.656-1.448c.279-1.117.324-1.935-.79-2.101l-5.207-.693-.199 4.122z" fill="#EABA8F" fill-rule="nonzero"/>
        <path d="M329.086 36.973c1.618.641 3.335.992 5.072 1.036l.23-5.38L329.32 32l-.235 4.973z" fill="#FFF" fill-rule="nonzero"/>
        <path d="m335.636 34.579 4.006-8.588 1.815.28-2.88 9.586a1.925 1.925 0 0 1-1.6 1.087 1.933 1.933 0 0 1-1.744-.843c-.374-.558.096-.91.403-1.522z" fill="#EABA8F" fill-rule="nonzero"/>
        <path d="m339.572 27.049-.753-1.487a1.053 1.053 0 0 1-.165-.828l.462-1.23a.467.467 0 0 1 .277-.305.488.488 0 0 1 .419.025.396.396 0 0 1 .202.348l-.055.842.421.598 2.491-.037s0 1.153-1.457 2.217l-.976.213-.866-.362v.006z" fill="#EABA8F" fill-rule="nonzero"/>
        <path d="m343.573 20.61-1.043 5.5a.279.279 0 0 1-.305.233l-2.648-.34a.276.276 0 0 1-.188-.115.295.295 0 0 1-.048-.22l1.034-5.458a.279.279 0 0 1 .3-.226l2.657.287c.077.009.146.05.192.115a.295.295 0 0 1 .05.224z" fill="#13223D" fill-rule="nonzero"/>
        <path d="m342.515 20.835-.689 4.625c-.013.108-.094.186-.186.177l-1.785-.153a.17.17 0 0 1-.13-.083.243.243 0 0 1-.031-.17l.782-4.723c.017-.108.101-.183.193-.171l1.693.255a.172.172 0 0 1 .12.082c.03.046.041.105.033.161zM328.977 32s3.173.665 3.95 3.427c.235.846-.48 6.793-.48 6.793l-5.425.031s-.914-1.914-1.899-3.785c-.985-1.872-1.025-4.71 1.378-5.637l2.476-.829z" fill="#FFF" fill-rule="nonzero"/>
        <path d="M332.918 38.01s.339-2.58-.651-3.889" stroke="#ECECF6" stroke-width="1.07"/>
        <path d="m324.988 41.852-1.268 10.296-1.734-.18s-.578-7.86-.065-10.649a1.892 1.892 0 0 1 1.238-1.446 1.815 1.815 0 0 1 1.832.403c.493.448.137.908-.003 1.576z" fill="#EABA8F" fill-rule="nonzero"/>
        <path d="M324.167 53.528a.56.56 0 0 1-.182.56.408.408 0 0 1-.353.099.377.377 0 0 1-.281-.218l-.1-.201c-.244.158-.587.583-.294 1.927a.477.477 0 0 1-.293.537.34.34 0 0 1-.411-.142.05.05 0 0 1 0-.021.46.46 0 0 1-.27.3.342.342 0 0 1-.411-.142.393.393 0 0 1-.032-.059.395.395 0 0 1-.168.116.34.34 0 0 1-.41-.143.454.454 0 0 1-.054-.132.261.261 0 0 0 0-.05h-.017a.34.34 0 0 1-.411-.143.389.389 0 0 1-.056-.132 5.225 5.225 0 0 1-.129-1.03v-.013c0-.15 0-.29.02-.427.045-.643 1.013-1.484 1.486-2.42l1.858.173.508 1.561zM323.318 36.242l-1.48 3.79a1.935 1.935 0 0 0 .552 2.169c.888.753 1.61 1.146 2.274.206l2.347-4.4-3.693-1.765z" fill="#EABA8F" fill-rule="nonzero"/>
        <path d="M325.68 33.414s-2.136 1.395-3.31 4.697l3.914 2.02 2.448-3.344-3.052-3.373z" fill="#FFF" fill-rule="nonzero"/>
        <path stroke="#ECECF6" stroke-width="1.07" d="m325.551 39.423 1.767-2.828"/>
        <path d="M321.112 28.112c1.268.014 2.307-.841 2.318-1.917.01-1.075-1.007-1.954-2.277-1.971-1.27-.017-2.307.844-2.318 1.916-.01 1.073 1.007 1.957 2.277 1.972z" fill="#000" fill-rule="nonzero"/>
        <path d="M322.773 27.334a1.414 1.414 0 1 0 2.02-1.979 1.414 1.414 0 0 0-2.02 1.979z" fill="#FFF" fill-rule="nonzero"/>
        <path fill="#EABA8F" fill-rule="nonzero" d="m329.152 29.485.287 3.576-3.132-.203-.403-5.1z"/>
        <path d="M329.286 31.647c0-.062-1.414-1.768-1.414-1.768l1.311.04.103 1.728z" fill="#C88561" fill-rule="nonzero"/>
        <path d="M327.311 22.516s1.495-.491 2.434 1.337c0 0 .667 1.331 1.612 3.254.243.481.27 1.056.07 1.561-.198.505-.6.885-1.091 1.033a4.682 4.682 0 0 1-2.178.091l-1.17-.377c-2.9-1.247-2.851-5.743.105-6.822l.218-.077z" fill="#EABA8F" fill-rule="nonzero"/>
        <path d="m330.146 25.638 1.18.464c.212.055.305.378.173.468l-.7.482-.653-1.414z" fill="#EABA8F" fill-rule="nonzero"/>
        <path d="M326.803 26.72s-2.508-4.085 1.93-4.186c0 0-2.898-1.652-5.376 1.514-.541.78-.75 1.77-.572 2.725.484 2.053 2.005 1.67 3.426 3.46 0 0 .83-.652.51-2.143a6.26 6.26 0 0 1 .082-1.37z" fill="#000" fill-rule="nonzero"/>
        <path d="M327.445 23.87c.603 3.236-.185 3.889-.185 3.889l-1.71-2.677 1.895-1.212z" fill="#000" fill-rule="nonzero"/>
        <path d="M325.273 27.797a1.06 1.06 0 1 0 1.97-.784 1.06 1.06 0 0 0-1.97.784z" fill="#EABA8F" fill-rule="nonzero"/>
        <path d="M326.965 27.052s-.215-.571-.707-.262" stroke="#0E1921" stroke-width=".58" stroke-linecap="round" stroke-linejoin="round"/>
        <path d="M329.37 25.101s.321-.306.417-.097c0 0 .062.14-.22.399-.282.257-.376.285-.46.17-.085-.113.105-.341.263-.472zM329.799 26.216a.177.177 0 1 0 .129-.22.179.179 0 0 0-.13.22z" fill="#1F120B" fill-rule="nonzero"/>
        <path d="M330.5 27.418s-.143.438-.707.3" stroke="#0E1921" stroke-width=".58" stroke-linecap="round" stroke-linejoin="round"/>
        <path d="M325.55 22.499s2.115-2.132 4.243.796l-3.943 2.343-.3-3.14z" fill="#000" fill-rule="nonzero"/>
        <path d="m327.906 32.144-1.295.732 3.877.892c.154-.29-1.294-2.121-1.294-2.121l-1.288.497z" fill="#EABA8F" fill-rule="nonzero"/>
        <g>
            <path fill="#EAE5E1" d="m350.82 80.937 4.627.41 7.504-5.98h-12.3l.169 5.57"/>
            <path fill="#E6A453" d="M336.075 81.452h19.244V67.728h-19.244z"/>
            <path fill="#EDB46F" d="M355.319 67.73h-19.244l2.137-1.978h14.97l2.137 1.978"/>
            <path fill="#AE8E6C" d="M344.396 71.916h2.386v-4.178h-2.386z"/>
            <path fill="#D4AD84" d="M346.782 67.748h-2.386l.427-1.988h1.531l.428 1.988"/>
            <path d="M347.59 80.358h2.912v-2.912h-2.911v2.912zm.179-.18h2.555v-2.554h-2.555v2.555z" fill="#835D2F"/>
            <path fill="#835D2F" d="M348.76 79.433h-.223v-.947h-.203l.157-.203.157-.202.158.202.158.203h-.204v.947M349.556 79.433h-.224v-.947h-.203l.157-.203.158-.202.315.405h-.203v.947M348.443 79.723h1.208v-.117h-1.208zM350.99 80.358h2.914v-2.912h-2.913v2.912zm.18-.18h2.555v-2.554h-2.556v2.555z"/>
            <path d="M352.546 79.814h-.008c-.056-.002-.096-.049-.098-.117v-1.041h.093v1.036c.001.017.006.026.016.026l.008-.002.005-.015c.001-.007.002-.018.009-.032a.045.045 0 0 1 .042-.027c.007 0 .014.001.02.005a.05.05 0 0 1 .029.054c-.007.04-.017.065-.036.084a.081.081 0 0 1-.033.021.139.139 0 0 1-.047.008" fill="#835D2F"/>
            <path d="M353.158 78.656h-1.365l.001-.045a.758.758 0 0 1 .195-.458.662.662 0 0 1 .098-.087l.006-.003a.645.645 0 0 1 .309-.118.066.066 0 0 1 .063-.05c.03 0 .055.02.064.05.157.013.3.08.415.196l.016.016c.022.024.044.05.063.077.015.021.028.044.042.067l.025.051a.987.987 0 0 1 .05.15c.006.026.011.055.014.083.003.023.003.047.004.07" fill="#835D2F"/>
        </g>
        <g transform="translate(343.252 27.59)">
            <path d="M6.482 12.018c3.58 0 6.482-2.69 6.482-6.009C12.964 2.69 10.062 0 6.482 0a6.767 6.767 0 0 0-4.168 1.407c-.173.134-.74.038-1.703-.289.366.963.489 1.535.367 1.715A5.663 5.663 0 0 0 0 6.01c0 3.319 2.902 6.01 6.482 6.01z" fill="#377DFF"/>
            <rect fill="#FFF" x="3.184" y="3.888" width="6.482" height="1" rx=".5"/>
            <rect fill="#FFF" x="3.184" y="6.009" width="6.482" height="1" rx=".5"/>
            <rect fill="#FFF" x="3.184" y="8.13" width="6.482" height="1" rx=".5"/>
        </g>
        <g opacity=".667" transform="translate(343 44.328)">
            <circle fill="#FFF" cx="3.932" cy="3.932" r="3.932"/>
            <path d="m4.12 6.45.002-.444.117-.01c.142-.017.272-.047.391-.09l.115-.047c.222-.102.392-.242.51-.419.117-.177.175-.38.175-.607a.953.953 0 0 0-.387-.793 1.585 1.585 0 0 0-.376-.212 3 3 0 0 0-.395-.128l-.143-.037.004-1.262.04.004a.933.933 0 0 1 .277.09l.08.047a.578.578 0 0 1 .26.434h.585a1.001 1.001 0 0 0-.188-.575 1.221 1.221 0 0 0-.495-.395 1.577 1.577 0 0 0-.46-.127l-.098-.009.002-.456h-.37v.46l-.058.005a1.69 1.69 0 0 0-.357.084l-.11.044a1.247 1.247 0 0 0-.51.404 1.006 1.006 0 0 0-.19.608c0 .28.094.506.282.677.189.17.444.3.767.387l.168.047-.004 1.338-.043-.006a1.21 1.21 0 0 1-.105-.022l-.1-.03a.745.745 0 0 1-.32-.215.615.615 0 0 1-.143-.362h-.61c.013.242.082.452.207.628.124.176.297.312.517.408.147.064.312.106.495.128l.1.008-.001.444h.37zm-.36-2.885-.002-.001-.125-.042a1.24 1.24 0 0 1-.24-.116.575.575 0 0 1-.178-.174.444.444 0 0 1-.068-.248c0-.114.033-.216.1-.306.066-.09.159-.16.28-.212.048-.021.1-.038.155-.05l.081-.015-.003 1.164zm.363 1.903.004-1.237.078.022c.045.014.088.029.13.044l.119.048c.115.05.206.113.273.189a.425.425 0 0 1 .102.293.537.537 0 0 1-.116.343.757.757 0 0 1-.318.228c-.08.033-.168.056-.262.069l-.01.001z" fill="#000" fill-rule="nonzero"/>
        </g>
        <g transform="translate(354.5 48.328)">
            <circle fill="#FFF" cx="5.898" cy="5.898" r="5.898"/>
            <path d="m6.18 9.674.002-.665.176-.016c.213-.025.409-.07.587-.134l.173-.07c.333-.154.588-.363.764-.629.176-.265.264-.569.264-.911a1.43 1.43 0 0 0-.161-.7 1.543 1.543 0 0 0-.42-.49A2.377 2.377 0 0 0 7 5.742a4.5 4.5 0 0 0-.593-.191l-.215-.056.006-1.893.06.007c.154.025.293.07.417.135l.119.07a.866.866 0 0 1 .389.65h.88a1.502 1.502 0 0 0-.284-.862 1.832 1.832 0 0 0-.742-.592c-.21-.095-.44-.16-.691-.191l-.145-.013.002-.684H5.65l-.002.69-.086.007a2.535 2.535 0 0 0-.535.127l-.165.066a1.871 1.871 0 0 0-.767.606c-.189.26-.283.564-.283.912 0 .42.141.759.423 1.015.282.255.666.45 1.15.58l.252.07-.007 2.007-.063-.008a1.814 1.814 0 0 1-.158-.032l-.15-.046a1.118 1.118 0 0 1-.48-.322.922.922 0 0 1-.215-.544H3.65c.02.364.123.678.31.942.186.265.445.469.775.613.22.095.468.16.742.191l.15.013v.666h.554zm-.54-4.327-.003-.001-.188-.063a1.86 1.86 0 0 1-.358-.175.863.863 0 0 1-.269-.26.666.666 0 0 1-.101-.372c0-.171.05-.324.149-.46.099-.134.239-.24.42-.318.072-.03.15-.056.233-.074l.122-.022-.005 1.745zm.545 2.855.006-1.855.116.033c.067.02.132.042.194.065l.18.072c.172.075.309.17.41.283.101.114.152.261.152.44a.805.805 0 0 1-.174.515c-.116.146-.275.26-.477.342A1.647 1.647 0 0 1 6.2 8.2l-.014.002z" fill="#000" fill-rule="nonzero"/>
        </g>
        <g>
            <path d="M43.58 88.487c28.62-1.156 42.733-19.25 42.733-42.999C86.313 21.741 72.2 2.49 43.579 2.49c-28.62 0-5.746 28.678-33.13 33.009-27.385 4.33 4.51 54.145 33.13 52.988z" fill="#E5F1FF"/>
            <path d="M59.194 57.723c-.167-.812-1.093-3.006-3.908-3.3-2.01-.21-3.783.732-5.22 1.913a7.405 7.405 0 0 0-1.99 2.497c-.973.752-1.604 1.87-2.12 2.884-.89 1.752-1.483 3.652-1.156 5.576.282 1.662 1.283 3.255 3 4.104 1.707.844 3.72.804 5.335-.18 3.14-1.911 5.172-5.26 5.822-8.487.323-1.606.568-3.401.237-5.007M18.517 66.697c.36 1.78 1.481 3.63 3.214 4.686.893.544 2.004.566 2.946.1.948-.469 1.501-1.349 1.657-2.267.18-1.062-.147-2.111-.639-3.079-.285-.56-.633-1.177-1.17-1.592a4.08 4.08 0 0 0-1.099-1.38c-.793-.65-1.773-1.171-2.882-1.056-1.555.163-2.066 1.375-2.158 1.823-.183.887-.048 1.878.131 2.765M22.78 57.21a15.087 15.087 0 0 0-.752-3.17c-.345-.965-.752-1.955-1.395-2.762-.616-.774-1.52-1.346-2.533-1.355-1.038-.009-1.965.334-2.673 1.015-.747.72-1.006 1.992-.896 3.03.104.975.487 1.918.963 2.768 1.003 1.795 2.927 3.922 5.159 3.869a.654.654 0 0 0 .244-.051c.47-.04.93-.263 1.271-.608.708-.718.732-1.8.612-2.736" fill="#377DFF"/>
            <path d="M30.323 66.81c-4.378-3.522-8.578-7.398-11.727-12.088a33.107 33.107 0 0 1-2.363-4.123c-.05-.106-.207-.014-.156.092 2.44 5.085 6.226 9.361 10.398 13.102a89.358 89.358 0 0 0 3.72 3.145c.09.073.219-.055.128-.129M30.35 71.503A23.316 23.316 0 0 1 19.331 62.7c-.064-.096-.223-.005-.157.092a23.527 23.527 0 0 0 11.128 8.888c.11.042.157-.134.048-.176M56.544 54.959c-1.006 3.161-2.65 6.088-4.487 8.837-1.673 2.504-3.673 4.9-6.422 6.256-.105.051-.013.209.092.157 2.73-1.348 4.734-3.716 6.406-6.199 1.882-2.795 3.562-5.78 4.586-9.002.036-.112-.14-.16-.175-.05" fill="#464A8A"/>
            <path fill="#1F2144" d="m25.361 81.333-.909-.06 7.862-41.072.91.06-7.863 41.072M49.664 81.015l.908-.06-7.862-41.073-.909.06 7.863 41.073"/>
            <path d="M70.358 26.16c.004-.57-.261-.81-.72-1.056-2.468-1.335-4.683-.115-4.699.236-.062 1.425-.184 3.243.478 4.53.496.965 1.466 1.818 2.573 1.344 1.156-.495 2.345-1.89 2.368-5.054" fill="#F79884"/>
            <path d="M66.073 32.822c.065.017.13.034.195.047.06.011.389.037.071.015.33.023.658.061.987.092.276.026.552.035.829.035.122 0 .244-.006.366-.007l.14-.008.016-.003a1.73 1.73 0 0 0 .217-.06c-.009-.094-.017-.18-.017-.246l.388-4.752c0-.18-.43.408-.583.519-.774.558-1.393.73-2.32.826a.243.243 0 0 0-.075.02c-.13 0-.12.062-.118.23.002.814-.137 2.212-.096 3.292" fill="#F79884"/>
            <path d="M66.268 32.815a.805.805 0 0 0-.185-.348c.074.107.136.223.185.348" fill="#F79884"/>
            <path d="M66.453 27.847c.003.17-.077.308-.177.309-.1.002-.182-.135-.185-.304-.002-.17.077-.308.177-.31.1 0 .182.136.185.305M68.89 27.9c-.002.17-.084.307-.184.306-.1-.002-.18-.14-.178-.309.002-.17.085-.306.184-.305.1.001.18.14.178.309" fill="#1F2144"/>
            <path d="M69.332 26.992a.628.628 0 0 0-.096-.047c-.276-.102-.652-.182-.917-.049-.138.07-.272.239-.078.322.165.07.403.06.578.064.142.005.316.03.45-.033.163-.078.17-.171.063-.257M65.631 27.134c.127.077.302.072.444.084.174.014.41.05.582-.001.202-.06.086-.244-.043-.328-.249-.162-.631-.125-.916-.054a.716.716 0 0 0-.101.037c-.116.073-.12.167.034.262" fill="#9E4D4D"/>
            <path d="M68.308 29.645c-.875.312-1.656-.06-1.702-.046-.02.007-.04.022-.036.043.075.379.505.592.84.611.348.02.836-.186.952-.55.009-.03-.019-.071-.054-.058" fill="#FFF"/>
            <path d="M67.691 29.193c-.24.06-.464-.02-.49-.288-.011-.125.03-.286.044-.41.03-.27.064-.537.101-.804.008-.058-.084-.063-.09-.005-.032.226-.06.45-.087.677-.024.198-.084.431-.06.63.034.285.371.346.602.29.056-.015.038-.105-.02-.09" fill="#DB745E"/>
            <path d="M70.343 27.522c-.225-.215-.61-.005-.686.252-.017.056.02.091.064.099a.96.96 0 0 0-.069.312.762.762 0 0 0-.028.35c0 .047.003.093.006.14-.02.053-.028.106-.006.157.136.322.56-.126.637-.27.14-.255.336-.798.082-1.04M64.606 27.488c.2-.237.607-.07.71.176.022.054-.01.093-.053.105.049.088.084.195.102.303h.001c.05.127.077.252.066.346.004.046.007.092.008.138.026.05.04.103.024.155-.1.335-.57-.063-.663-.196-.168-.24-.42-.758-.195-1.027" fill="#F79884"/>
            <path d="M70.041 27.822a1.192 1.192 0 0 1-.126.515c-.026.052.052.098.079.046.088-.176.134-.364.138-.561.001-.059-.09-.059-.091 0M65.107 28.277a1.33 1.33 0 0 1-.116-.485c-.003-.059-.094-.059-.09 0 .008.185.051.362.128.531.023.053.102.008.078-.046" fill="#DB745E"/>
            <path d="m52.694 72.351-.52-51.702a.709.709 0 0 0-.705-.712l-27.416-.022a.709.709 0 0 0-.69.728l.518 51.702a.71.71 0 0 0 .706.713l27.417.022a.71.71 0 0 0 .69-.729" fill="#1F2144"/>
            <path d="m51.062 70.736-.458-48.297a.628.628 0 0 0-.624-.629l-24.226-.087a.626.626 0 0 0-.61.643l.459 48.296a.627.627 0 0 0 .623.63l24.226.087a.628.628 0 0 0 .61-.643" fill="#FFF"/>
            <path d="M59.509 74.518c-.263.01-.17-.042-.395.12a.253.253 0 0 0-.079.095c-.142-.016-.287.058-.299.242-.1 1.493-.405 2.966-.45 4.464-.006.191.122.35.326.332.372-.032.258-.056.619-.153.096-.025.325-.58.337-.673.1-.753.362-3.304.392-4.07.007-.2-.25-.366-.451-.357M69.541 75.458c-.263.012-.168-.042-.395.121a.268.268 0 0 0-.078.094c-.142-.015-.287.059-.3.243-.1 1.493-.405 2.966-.45 4.465-.005.19.123.35.327.332.372-.034.259-.057.62-.154.095-.025.324-.58.336-.673.1-.753.363-3.304.392-4.07.007-.2-.249-.367-.452-.358" fill="#F79884"/>
            <path d="M59.698 78.863c-.356-.042-1.14-.029-1.53-.03-.172.01-.231.122-.224.18.058.446-.35.416-.896.687a9.218 9.218 0 0 1-1.657.646c-.662.193-.594.087-.6.51-.005.304.675.257 1.227.228.087-.005.173-.01.26-.012.26-.011.517-.062.76-.151l.135-.05c.408-.15.778-.192 1.211-.182.021.001.047.016.051.039.007.044.01.07.015.115.01.08.082.139.163.136.177-.006.356-.014.536-.023.339-.018.658-.023.71-.109.058-.095.032-.112.03-.209-.005-.26-.06-1.758-.19-1.775" fill="#1F2144"/>
            <path d="M58.153 79.7a2.916 2.916 0 0 0-.35-.308c-.05-.038-.104.057-.053.095.122.091.238.195.349.307.046.048.1-.048.054-.095zm-.748-.13c-.035-.06-.113 0-.077.06.084.147.162.3.23.46.03.067.107.006.078-.062a4.022 4.022 0 0 0-.23-.458zm-.386.253c-.026-.069-.103-.007-.078.062.059.158.12.314.183.469.028.067.105.006.078-.06a19.943 19.943 0 0 1-.183-.471zM59.887 80.638a3.124 3.124 0 0 0-.024-.254c-.413.095-.832.089-1.254.09-.417.002-.818.04-1.225.128-.862.186-1.708.3-2.59.265l.003.141c.004.304.683.236 1.233.19l.26-.019c.259-.018.515-.077.756-.174l.133-.053c.403-.163.77-.215 1.205-.218.021 0 .047.014.052.036.01.045.01.07.018.115.013.08.086.137.167.131.177-.01.356-.023.535-.039.338-.028.658-.043.707-.13.055-.097.028-.113.024-.21M57.31 78.322c1.01.11 2.021.126 3.035.046.095-.007.185-.077.182-.18a8.69 8.69 0 0 1 .573-3.418c.372-.96.992-1.795 1.388-2.743.762-1.827.202-3.91.406-5.826a7.158 7.158 0 0 1 .942-2.843c.417-.726.901-1.413 1.276-2.162.334-.663.58-1.38.573-2.13-.004-.542-.18-1.085-.052-1.624.038-.16.098-.313.17-.46.18 2.92.358 5.84.304 8.766-.021 1.119-.09 2.238-.059 3.356.028 1.01.16 2.011.324 3.008.347 2.113.82 4.225.614 6.379-.01.107.092.17.182.181.687.09 1.379.136 2.072.125.392-.006 1.209.09 1.513-.235.115-.123.126-.28.143-.438.04-.353.047-.715.07-1.07.048-.713.094-1.427.14-2.14.327-4.988.745-9.98.944-14.976.203-5.097-.041-10.197-.284-15.289-.011-.23-.369-.232-.364-.005a57.667 57.667 0 0 0-4.925.096.166.166 0 0 0-.107-.031l-2.355.069c-.66.019-1.352-.027-2.005.076-.488.078-.737.36-.877.82-.198.647-.316 1.332-.456 1.994-2.117 10.02-1.999 20.325-3.542 30.424-.02.126.048.215.175.23" fill="#464A8A"/>
            <path d="M67.667 82.01c.3.007.599.003.898-.018.196-.015.469 0 .653-.083.069-.031.104-.078.138-.143.076-.142.132-.239.272-.33.105-.07.132-.138.14-.29.048-.686.062-1.374.042-2.061-.002-.034-.056-.094-.183-.096-.152-.003-.71-.003-.862 0-.107 0-.247-.019-.348.031-.122.06-.154.193-.17.318-.031.247-.036.499-.033.749a.038.038 0 0 0-.007.022c-.015.554-.598.82-.794 1.295-.091.22-.098.676.254.607" fill="#1F2144"/>
            <path d="M68.519 79.9c-.074.006-.074.097 0 .09.178-.015.59-.012.768-.008.075 0 .074-.09 0-.091a9.823 9.823 0 0 0-.768.009zm.073-.496c-.075.007-.075.098 0 .091.178-.016.588-.012.768-.009.074.001.074-.09-.001-.09a9.793 9.793 0 0 0-.767.008zm-.124 1.014c-.075 0-.067.095.008.097.171.003.575.004.747.002.074-.001.066-.098-.008-.097a31.95 31.95 0 0 1-.747-.002zM67.382 81.503h.006c.592.064 1.08.147 1.582-.027.295-.1.344-.28.572-.449.076-.056.157-.1.24-.138-.004.086-.008.173-.014.26-.008.151-.035.219-.14.288-.14.092-.196.19-.272.33-.034.066-.07.113-.138.144-.184.084-.457.069-.653.083-.299.02-.599.025-.898.019-.305.06-.34-.277-.285-.51" fill="#464A8A"/>
            <path d="M63.964 50.215c1.027.017 2.059.012 3.086-.029.387-.015.775-.038 1.161-.07.451-.037.696-.063.995-.112a11.13 11.13 0 0 0 2.092-.537c.318-.117.88-.442 1.253-.73.352-2.373 1.396-11.09 1.244-12.11a6.462 6.462 0 0 0-1.001-2.596c-.675-1.018-2.156-1.368-3.583-1.717-.487.336-1.232.496-1.704.513-.776.027-1.392-.141-1.77-.735-1.126.221-2.131.475-3.077 1.054-1.171.716-1.548 1.714-1.99 3.215-.393 1.342-1.258 10.834-.514 13.263.052.17 2.618.572 3.808.59" fill="#1F2144"/>
            <path d="M32.692 29.005c-.008-.082-.05-.145-.109-.148-1.262-.065-4.976-.067-5.267-.082-.24-.013-.19.284-.19.338.012 1.186.192 3.9.226 4.475.015.256.045.384.239.447.368.121 4.071.102 4.983.115.289.005.317-.103.289-.76-.11-2.533.042-2.2-.17-4.385" fill="#B5CFFF"/>
            <path d="M31.124 30.51a.162.162 0 0 0-.22.06l-.936 1.624-.388-.506a.16.16 0 0 0-.255.195l.538.702a.16.16 0 0 0 .225.03.157.157 0 0 0 .056-.086l1.038-1.799a.16.16 0 0 0-.058-.22" fill="#1F2144"/>
            <path d="M34.573 33.62c.025.258.162.458.617.464 2.398.027 12.17.011 13.149-.011.65-.016.687-.125.666-.426-.089-1.23-.012-2.949-.125-4.458-.02-.27.138-.407-.495-.4-.765.009-10.252-.03-13.573-.069-.622-.007-.516.582-.509.678.132 1.762.189 3.357.27 4.223" fill="#F5E4D5"/>
            <path d="M47.149 32.835a85.835 85.835 0 0 0-3.212.016c-.059.002-.061.093-.003.091a85.836 85.836 0 0 1 3.212-.016c.058 0 .061-.09.003-.091zm.05-1.375-11.203-.02c-.059 0-.06.09-.001.092l11.202.019c.06 0 .06-.091.002-.091zm-.02-1.477-11.203-.02c-.058 0-.06.092 0 .092l11.202.019c.058 0 .06-.091 0-.091z" fill="#1F2144"/>
            <path d="M32.829 55.703c-.008-.081-.051-.144-.11-.147-1.262-.066-4.975-.067-5.267-.082-.24-.013-.19.284-.19.337.013 1.187.193 3.901.227 4.476.015.255.044.383.238.447.368.121 4.072.102 4.984.115.288.004.316-.103.288-.76-.11-2.534.042-2.2-.17-4.386" fill="#B5CFFF"/>
            <path d="M31.29 57.058a.16.16 0 0 0-.218.059l-.938 1.624-.387-.506a.16.16 0 0 0-.255.195l.537.701a.16.16 0 0 0 .283-.055l1.038-1.799a.161.161 0 0 0-.06-.22" fill="#1F2144"/>
            <path d="M35.14 60.303c.023.258.16.459.615.466 2.399.038 12.17.064 13.15.046.649-.013.687-.122.666-.422-.083-1.23.002-2.948-.105-4.458-.019-.27.139-.407-.492-.403-.766.006-10.253-.074-13.573-.127-.623-.01-.52.579-.512.675.124 1.763.174 3.357.251 4.223" fill="#F5E4D5"/>
            <path d="m47.898 56.625-11.201-.15c-.059 0-.059.09 0 .092l11.201.15c.06 0 .06-.091 0-.092M47.857 58.1l-11.201-.148c-.06 0-.06.09 0 .091l11.201.149c.059 0 .059-.09 0-.092M39.896 59.393a85.837 85.837 0 0 0-3.211-.066c-.06 0-.058.091 0 .091 1.072.002 2.142.024 3.212.066.06.002.057-.09-.001-.091" fill="#1F2144"/>
            <path d="M32.593 37.93c-.007-.082-.05-.145-.11-.148-1.26-.065-4.974-.068-5.266-.082-.24-.013-.19.284-.19.338.013 1.185.193 3.9.227 4.475.015.256.043.383.238.447.368.121 4.071.102 4.983.115.29.004.318-.103.29-.76-.11-2.533.041-2.2-.172-4.386" fill="#B5CFFF"/>
            <path d="M30.874 39.178a.161.161 0 0 0-.22.06l-.937 1.622-.387-.505a.16.16 0 0 0-.255.196l.537.7a.16.16 0 0 0 .225.03.156.156 0 0 0 .057-.086l1.038-1.798a.16.16 0 0 0-.058-.219" fill="#1F2144"/>
            <path d="M34.591 42.533c.02.258.155.46.61.472 2.397.063 12.168.19 13.148.18.65-.005.689-.113.671-.414-.07-1.232.032-2.948-.059-4.46-.016-.269.143-.404-.488-.406-.767-.003-10.252-.18-13.571-.268-.622-.016-.525.574-.52.67.106 1.764.14 3.359.21 4.226" fill="#F5E4D5"/>
            <path d="m46.961 41.93-11.2-.228c-.059-.002-.06.089 0 .09l11.2.23c.058 0 .058-.091 0-.092zm-11.1-1.64c3.734.076 4.463.132 8.196.208.058.001.06-.09 0-.092-3.733-.075-4.46-.13-8.195-.207-.058-.001-.059.09 0 .09zm11.254-1.338-11.2-.228c-.059-.001-.06.09 0 .09l11.2.23c.058.001.058-.09 0-.092z" fill="#1F2144"/>
            <path d="M32.798 46.535c-.007-.08-.051-.144-.11-.147-1.26-.065-4.974-.067-5.266-.082-.24-.013-.19.284-.19.338.013 1.186.193 3.9.227 4.475.015.256.043.383.238.447.368.121 4.071.102 4.983.115.29.004.317-.103.29-.76-.111-2.533.041-2.2-.172-4.386" fill="#B5CFFF"/>
            <path d="M31.185 48.133a.162.162 0 0 0-.22.06l-.936 1.623-.388-.506a.16.16 0 1 0-.254.195l.537.702a.16.16 0 0 0 .225.03.162.162 0 0 0 .056-.086l1.038-1.799a.16.16 0 0 0-.058-.22M47.056 47.552l-11.202-.149c-.059 0-.059.09 0 .091l11.202.149c.058 0 .058-.09 0-.091" fill="#1F2144"/>
            <path d="M34.68 51.31c.02.257.155.46.61.472 2.398.064 12.168.197 13.148.189.65-.006.689-.114.671-.416-.069-1.231.034-2.948-.056-4.459-.016-.27.143-.405-.488-.407a1786.46 1786.46 0 0 1-13.571-.276c-.622-.016-.525.574-.52.67.105 1.764.138 3.36.206 4.226" fill="#F5E4D5"/>
            <path d="m46.737 49.35-11.201-.148c-.06 0-.06.09 0 .091l11.201.149c.058 0 .058-.09 0-.092zm-11.11-1.56c3.733.05 4.462.1 8.196.149.058 0 .058-.09 0-.091-3.734-.05-4.463-.1-8.196-.149-.06 0-.06.09 0 .091zM65.569 44.707a.345.345 0 0 0-.041-.1c-.678-1.763-.877-3.66-1.144-5.516l-.863-5.976a.223.223 0 0 0-.085-.154c-.06-.075 1.356-.648 1.237-.617-4.234 1.093-5.864 4.584-6.456 7.043-.316 1.31-.523 2.787-.154 4.151.355 1.307 2.04 1.802 3.302 1.89.958.067.848-.085 1.803-.158l1.4-.11c.302-.023.69.029.93-.187.073-.066.093-.175.07-.266M67.751 46.077c.24.214.629.163.931.187l1.4.108c.955.075 1.935.215 2.894.149 1.26-.088 2.165-.818 2.52-2.126.369-1.363.37-2.986-.092-5.342-.518-2.64-1.695-5.57-4.605-6.275a.255.255 0 0 0-.273.092.223.223 0 0 0-.085.154L69.578 39c-.267 1.857-1.178 4.948-1.856 6.711a.345.345 0 0 0-.04.1.271.271 0 0 0 .07.267" fill="#1F2144"/>
            <path d="M69.483 32.77c-.031-.258-.233-.537-.347-.777-.018-.037-.06-.035-.158-.002-.339.075-.604.17-.933.274-.165.052-.346.1-.501.17a.433.433 0 0 0-.091.05.493.493 0 0 0-.083-.049c-.15-.077-.328-.134-.49-.193-.32-.117-.58-.226-.913-.316-.095-.037-.136-.041-.157-.005-.13.234-.35.503-.399.76-.038.204.126.361.271.514.213.222.435.46.694.649.162.116.296.165.455.03.198-.169.278-.434.376-.645l.204-.441a.903.903 0 0 1 .037-.07l.03.067.173.45c.084.215.145.484.332.66.15.143.287.101.456-.01.271-.175.51-.404.738-.616.155-.145.33-.295.306-.5" fill="#F5E4D5"/>
            <path d="M70.887 25.976c-.035-.207-.178-.404-.233-.606-.047-.167-.01-.353-.093-.505-.154-.28-.449-.35-.712-.477a1.134 1.134 0 0 0-.058-.328c-.056-.164-.163-.356-.333-.418-.146-.053-.26.015-.362.111-.12-.355-.296-.628-.647-.795a1.658 1.658 0 0 0-1.015-.124 1.675 1.675 0 0 0-.735.34c-.176.135-.305.08-.482.006a.835.835 0 0 0-.872.119c-.321.254-.385.612-.499.984-.057.19-.226.296-.296.479a.72.72 0 0 0-.028.404c.058.267.285.536.573.457.23-.063.43-.146.674-.163.277-.018.542.038.811.094.219.045.442.086.664.05.226-.037.412-.16.606-.278.476-.288.61-.439 1.11-.206.752.273 1.063.637 1.02 1.608-.012.287-.085.682.067.947.033.058.09.106.137.072a.045.045 0 0 0 .017-.01c.28-.239.317-.502.4-.845.048-.202.196-.329.266-.517a.76.76 0 0 0 .02-.399" fill="#9E4D4D"/>
            <path d="M65.26 25.183c-.137-.097-.386-.058-.568-.028a.042.042 0 0 0-.028.004l-.033.005-.021.004c-.007-.02-.012-.04-.02-.059-.021-.053-.11-.03-.088.024.189.485.145 1 .193 1.507.027.276.056.743.377.837.025.008.048-.009.056-.032.19-.594-.113-1.237.09-1.835.045-.133.2-.313.042-.427" fill="#9E4D4D"/>
            <path d="M62.054 39.958c-.024.237.093.523.186.758-.09.013-.097.163.007.18 1.105.184 2.348.886 3.422 1.203.045.013-.052-.453-.036-.503.092-.28.179-.56.26-.842.013-.042 0-.104-.05-.118a79.696 79.696 0 0 0-1.96-.474 16.231 16.231 0 0 0-1.752-.283c-.04-.004-.073.037-.077.08" fill="#F79884"/>
            <path d="M66.087 40.372c.02-.07.043-.141.065-.212.056-.174-.12-.306-.27-.284.034-.167-.105-.275-.238-.273-.06-.15-.275-.222-.384-.075-.06-.118-.225-.152-.339-.07l.014-.05c.08-.284-.346-.398-.44-.12l-.084.252a.24.24 0 0 0-.396.084c-.36.916-.607 1.862-.74 2.837-.022.162.096.333.28.28l.004-.001c.033.109.157.174.28.155.16-.024.289-.124.394-.26.084.062.202.073.285-.024.057-.067.108-.137.156-.208.063.058.16.08.253.045.035.086.132.125.227.116a.216.216 0 0 0 .128.134c-.02.12-.037.24-.052.361-.038.29.418.287.455 0 .034-.26.077-.516.127-.772l.029-.093c.152-.512.282-1.03.407-1.55a.218.218 0 0 0-.161-.272" fill="#1F2144"/>
            <path d="M72.86 40.32c.023.053.102.006.079-.046-.526-1.195-1.21-2.43-1.342-3.748-.107-1.086.265-2.157 1.162-2.746l-.072-.06c-.861.576-1.258 1.598-1.193 2.654.087 1.389.816 2.695 1.366 3.945M62.727 34.097a2.112 2.112 0 0 0-.75-.562l-.087.061c.314.138.599.337.812.617.367.482.463 1.117.392 1.707-.077.649-.36 1.254-.665 1.825-.322.603-.662 1.199-.994 1.797-.028.051.05.098.078.047.372-.67.759-1.333 1.108-2.014.297-.583.55-1.207.582-1.868.028-.569-.107-1.163-.476-1.61" fill="#464A8A"/>
            <path d="M59.06 39.411c-.046.247.49.177.62.187.348.026.661.066 1.005.102-.012.037-.08.093-.09.13-.44-.042-.911-.03-1.303.091-.053.016-.05.08-.018.112.197.211.712.16.979.177.31.018 1.524.664 1.726.721.416.12.52-.087.633-.142.194-.092.334-.327.514-.454.027-.019.031-.047.023-.071a.061.061 0 0 0-.018-.072 51.71 51.71 0 0 1-1.024-.924c-.249-.231-.48-.522-.8-.653-.368-.152-.795-.22-1.187-.262-.201-.021-.522-.11-.68.06-.032.032-.012.081.022.101.258.147.617.174.905.241l.726.172-.084.093c-.41-.082-.88-.16-1.208-.148-.187.007-.646.006-.688.237-.046.254.41.107.544.102.426-.018.793.075 1.19.156-.033.065.009-.084-.021-.018-.355-.06-.66-.154-1.018-.16-.143-.002-.705-.01-.748.222M73.202 42.199a7.215 7.215 0 0 0-1.055-.215 4.424 4.424 0 0 0-.03-.217c.404.047.782.072 1.18.221.126.047.53.206.549.072.034-.231-.404-.373-.58-.438-.308-.114-.779-.186-1.194-.236l-.051-.114.743.062c.295.026.645.113.935.052.04-.007.073-.048.054-.089-.1-.21-.43-.226-.628-.268-.387-.082-.814-.15-1.21-.12-.29.021-.594.068-.854.198.074-.097.171-.113.266-.191.084-.069.191-.098.279-.16.069-.048.166-.127.133-.222-.045-.124-.188-.083-.28-.052-.25.085-.486.209-.72.33-.19.102-.35.203-.482.379-.162.216-.287.485-.576.555a.047.047 0 0 0-.023.016c-.941.179-2.025.195-2.9.375-.045.009.26.375.27.427.05.29.105.577.166.865.01.044.05.092.101.08a83.907 83.907 0 0 0 1.951-.504 14.58 14.58 0 0 0 1.088-.35c.008 0 .018 0 .026.002.208.02.294.301 1.13.208.304.042.585.001.885.08.259.068.732.276.985.137.04-.02.062-.08.018-.112-.334-.236-.778-.394-1.21-.49.002-.04.004-.08.004-.12.338.075.648.134.986.217.127.03.614.265.649.015.032-.234-.468-.351-.605-.393" fill="#F79884"/>
            <path d="M68.863 44.406a28.228 28.228 0 0 0-.69-3.52v-.003l-.016-.058c-.045-.168-.232-.172-.346-.083-.008-.023-.014-.046-.021-.07-.082-.257-.451-.129-.437.115l.005.076c-.127-.084-.339-.005-.358.16-.116.015-.221.106-.197.248l.049.276a.467.467 0 0 0-.25.039.556.556 0 0 0-.301.712c.024.061.044.123.067.184l.01.027.006.027c.023.112.04.225.05.34.022.266.292.491.558.478.056.354.117.707.181 1.059.054.287.506.232.453-.058-.037-.194-.07-.388-.104-.582a.122.122 0 0 0 .016-.006c.042.041.098.06.154.061l.055.32c.03.174.239.237.361.159.075.07.198.081.286.032l.018.126c.037.29.489.234.451-.059" fill="#1F2144"/>
            <path d="M68.585 43.265c-.263.034-.556.078-.765.256-.27.229-.232.626-.48.874-.571.572-1.492.294-2.206.397-.73.105-1.402.443-2.128.567-.792.135-1.6-.122-2.384.084-.057.014-.041.104.016.089.783-.205 1.592.052 2.384-.084.726-.125 1.398-.46 2.129-.566.678-.099 1.434.118 2.051-.264.289-.178.374-.406.483-.71.148-.416.515-.502.916-.554.058-.007.042-.096-.016-.089M68.09 41.7c-.37.092-.72-.278-1.063-.376-.331-.093-.68-.083-1.02-.058-.838.065-1.67.133-2.513.13-.058 0-.067.09-.008.091.823.003 1.637-.054 2.457-.124.424-.037.876-.054 1.274.127.29.132.547.385.889.3.056-.014.04-.104-.017-.09" fill="#464A8A"/>
            <path d="M65.787 55.936a29.38 29.38 0 0 0-.802-3.094c-.035-.111-.211-.064-.175.048a29.66 29.66 0 0 1 .801 3.094c.024.115.2.066.176-.048M62.442 65.257c-.404-.636-.754-1.3-1.05-1.993-.046-.107-.203-.014-.157.092.296.693.645 1.357 1.05 1.993.063.098.22.007.157-.092M62.852 63.992a17.519 17.519 0 0 1-.944-2.05c-.04-.109-.217-.062-.175.048.276.719.595 1.416.962 2.094.056.103.213.01.157-.092" fill="#1F2144"/>
            <path d="M50.611 22.44a.627.627 0 0 0-.624-.63l-24.225-.087a.627.627 0 0 0-.61.643l.012 1.25h25.458l-.01-1.177" fill="#B5CFFF"/>
            <path d="M25.603 70.662a.627.627 0 0 0 .623.63l24.226.087a.628.628 0 0 0 .61-.643l-.03-3.127-25.46-.092.03 3.145" fill="#233E80"/>
            <path d="M37.484 68.877a.113.113 0 0 0-.082.034.114.114 0 0 0-.03.085l.043.842a.113.113 0 0 0 .113.109h1.086a.113.113 0 0 0 .113-.12l-.044-.843a.113.113 0 0 0-.114-.107h-1.085zm1.13 1.16h-1.086a.205.205 0 0 1-.204-.193L37.28 69a.204.204 0 0 1 .204-.215h1.085c.11 0 .199.084.205.194l.044.842a.206.206 0 0 1-.204.216zM46.886 69.998a.049.049 0 0 1-.028-.01l-.782-.611.72-.654a.046.046 0 0 1 .065.003.045.045 0 0 1-.004.064l-.64.581.698.545c.02.015.023.044.008.065a.048.048 0 0 1-.037.017M31.398 69.732h-1.32c-.026 0-.046.022-.046.05 0 .028.02.05.046.05h1.32c.026 0 .046-.022.046-.05 0-.028-.02-.05-.046-.05zm-.036-.407c.025 0 .045-.023.045-.05 0-.028-.02-.05-.045-.05h-1.32c-.025 0-.046.022-.046.05 0 .027.02.05.045.05h1.32zm-1.33-.499h1.32c.026 0 .046-.022.046-.05 0-.028-.02-.05-.045-.05h-1.32c-.026 0-.046.022-.046.05 0 .028.02.05.045.05z" fill="#F5E4D5"/>
        </g>
        <g transform="translate(153 .17)">
            <path d="M42.468 88.318c23.455 0 42.468-19.251 42.468-43 0-23.747-23.555-7.742-34.898-35.742C38.695-18.424 0 21.57 0 45.319c0 23.748 19.014 42.999 42.468 42.999z" fill="#FFF2D8"/>
            <rect stroke="#000" stroke-width="1.5" fill="#FFF" x="11.718" y="26.567" width="61.5" height="37.524" rx="3"/>
            <path d="m31.426 63.226-10.67-.186a.01.01 0 0 1-.01-.011l.012-.69a.01.01 0 0 1 .01-.01l10.672.187a.01.01 0 0 1 .01.009l-.013.69c0 .006-.005.011-.011.01" fill="#1B1A19"/>
            <path d="m27.604 63.476-6.747-.118a.117.117 0 0 1-.115-.119l.01-.516 6.863.12c.04 0 .073.034.072.074l-.009.487c0 .04-.033.073-.074.072" fill="#10100E"/>
            <path d="m27.197 67.15-5.679-3.966a.006.006 0 0 1-.001-.008l.23-.331a.006.006 0 0 1 .009-.002l5.679 3.966c.002.002.003.006.001.008l-.231.331a.006.006 0 0 1-.008.002" fill="#10100E"/>
            <path d="M21.072 49.34a1.589 1.589 0 0 0-1.616 1.561l-.171 9.814c-.003.164.023.322.067.472.283.296.678.483 1.12.49l10.445.183a.35.35 0 0 0 .357-.345l.21-11.993-10.412-.181" fill="#E79702"/>
            <path fill="#BD242B" d="m19.42 52.946 12 .21.008-.441-12-.21z"/>
            <path d="M31.764 49.63a.35.35 0 0 0-.246-.107h-.035l-.21 11.992a.35.35 0 0 1-.356.345l-10.445-.182a1.583 1.583 0 0 1-1.126-.496l.017.049c.009.028.018.057.03.085a1.55 1.55 0 0 0 .127.255 1.646 1.646 0 0 0 .089.13l.026.036c.028.034.057.067.087.1l.037.036a1.487 1.487 0 0 0 .304.234l.036.023c.04.022.082.043.125.062l.032.014c.034.014.067.027.102.039l.048.015a1.639 1.639 0 0 0 .244.054l.046.007a1.565 1.565 0 0 0 .15.01l10.445.182a.35.35 0 0 0 .357-.345l.215-12.288a.35.35 0 0 0-.099-.25" fill="#BD242B"/>
            <path d="m41.993 63.094-8.971-.157c-.223-.004-.42-.243-.51-.614-.126-.688-.254-1.375-.381-2.063-.013-.163-.031-.54.09-.858.039-.1.136-.44.402-.449a17.057 17.057 0 0 1 2.557.104c1.343.156 2.57.459 3.668.83.33.112.597.115.774.1.52-.047 1.121-.328 1.584-.548.31-.147.518-.263.727-.069.184.171.278.497.327.727l.32 1.422c.167.748-.143 1.583-.587 1.575" fill="#1B1A19"/>
            <path d="m42.58 61.519-.32-1.422c-.049-.23-.143-.556-.327-.727-.193-.18-.386-.094-.659.037.019.064.033.127.046.184l.32 1.422c.167.748-.144 1.582-.587 1.575l-8.507-.149c.1.304.278.495.476.498l8.971.157c.444.008.754-.827.587-1.575" fill="#10100E"/>
            <path d="m20.679 65.123-1.265 1.195c-.153.144-.147.354.015.495l.893.775 3.368-2.605-2.494-.044a.739.739 0 0 0-.517.184" fill="#CEA331"/>
            <path d="m20.897 65-1.266 1.194c-.152.144-.146.354.016.495l.893.775 3.368-2.605-2.494-.044a.739.739 0 0 0-.517.184" fill="#F7C127"/>
            <path d="m19.782 66.4.621-.76-.645.609a.312.312 0 0 0-.056.411.34.34 0 0 1 .08-.26" fill="#FAE8BE"/>
            <path d="M21.154 64.76a.769.769 0 0 0-.129.191 13.94 13.94 0 0 0-.576 1.463c-.15.44-.287.889-.324 1.352-.001.017.874-.224.953-.258.298-.126.492-.334.736-.544l1.783-1.537 1.005-.866-2.866-.05a.768.768 0 0 0-.582.248" fill="#CDCECA"/>
            <path d="M26.708 79.737a4.537 4.537 0 1 1 .159-9.072 4.537 4.537 0 0 1-.159 9.072zm.198-11.326a6.79 6.79 0 1 0-.237 13.58 6.79 6.79 0 0 0 .237-13.58z" fill="#10100E"/>
            <path d="m29.312 77.703-1.005-1.444c.203-.291.325-.644.331-1.026l-.002-.077 1.655-.556a3.543 3.543 0 0 1-.98 3.103zm-4.188.64 1.046-1.398a1.844 1.844 0 0 0 1.183.017l.997 1.432a3.54 3.54 0 0 1-1.625.362 3.538 3.538 0 0 1-1.601-.414zm-1.891-3.204c.004-.228.03-.451.075-.667l1.634.613-.006.084c-.007.385.105.746.302 1.045l-1.054 1.407a3.542 3.542 0 0 1-.951-2.482zm3.023-3.453-.03 1.752a1.852 1.852 0 0 0-.837.55l-1.648-.618a3.557 3.557 0 0 1 2.515-1.684zm3.643 1.796-1.668.56a1.852 1.852 0 0 0-.821-.583l.03-1.752a3.558 3.558 0 0 1 2.459 1.775zm-3.033-2.817a4.537 4.537 0 1 0-.158 9.072 4.537 4.537 0 0 0 .158-9.072z" fill="#CDCECA"/>
            <path d="M27.38 75.211a.592.592 0 1 1-1.185-.02.592.592 0 0 1 1.184.02" fill="#241D1A"/>
            <path d="m52.3 51.626-.927-3.181a.148.148 0 0 0-.14-.107l-.223-.004a2.599 2.599 0 0 0-.02-.375c-.111-.864-.713-1.73-1.072-1.653-.363.078-.473 1.122-.37 1.87.098.712.46 1.673.826 1.656.256-.012.509-.497.601-1.083h.009c.047 0 .088.032.1.078l.841 2.984c.009.03.013.061.012.093l-.027 1.55.376-.056.03-1.654c0-.04-.005-.08-.016-.118" fill="#CDCECA"/>
            <path d="m51.487 61.419-3.203-6.877a.931.931 0 0 1 .533-1.27l1.16-.413c.182-.065.353-.158.506-.276l.953-.734a.797.797 0 0 1 .5-.166l1.196.021c.278.005.499.234.494.512l-.05 2.869a.503.503 0 0 1-.512.494l-.508-.01a.664.664 0 0 0-.338.087l-.458.258a.396.396 0 0 0-.154.53l.689 1.293.7 5.06-1.154-.837a.779.779 0 0 1-.256-.318l-.098-.223" fill="#FFBB3C"/>
            <path d="M48.817 53.271a.931.931 0 0 0-.533 1.27l3.203 6.878.098.223a.778.778 0 0 0 .256.318l1.153.836-.7-5.059-.688-1.292a.396.396 0 0 1 .154-.531l.458-.258a.664.664 0 0 1 .338-.086l.508.009a.503.503 0 0 0 .512-.494l.013-.754c-.49.026-.998.02-1.475-.08a2.792 2.792 0 0 1-1.122-.481c-.35-.262-.614-.614-.852-.984-.054.026-.107.053-.163.073l-1.16.412" fill="#BD7B00"/>
            <path d="M53.576 55.085a.5.5 0 0 1-.19.381 1.824 1.824 0 0 0 .106-3.599.5.5 0 0 1 .134.35l-.05 2.868" fill="#F7C127"/>
            <path d="M53.343 55.488a1.83 1.83 0 0 0 .27-.018.5.5 0 0 0 .19-.381l.05-2.869a.5.5 0 0 0-.135-.349 1.811 1.811 0 0 0-.311-.034l-.064 3.65" fill="#BD7B00"/>
            <path d="M51.636 56.502a.396.396 0 0 0-.039.433l.69 1.292.622 4.508.085.061-.7-5.059-.658-1.235" fill="#BD242B"/>
            <path d="M52.679 62.112a.824.824 0 0 1-.588-.102l-1.09-.657c-.37-.223-.782-.595-.948.402l-1.23 5.395a2.097 2.097 0 0 0 .586 1.984l1.44 1.39.469.484 2.388-5.07-.474-3.936-.553.11" fill="#1B1A19"/>
            <path d="m51.329 70.368-.468-.483-1.44-1.39a2.095 2.095 0 0 1-.618-1.218c-.115.679.107 1.375.606 1.857l1.44 1.39.469.484 2.388-5.07-.06-.49-2.317 4.92" fill="#10100E"/>
            <path d="m26.858 76.976 6.987-.15a1.502 1.502 0 0 0 .052-3.002l-6.977-.394a1.775 1.775 0 1 0-.062 3.546" fill="#241D1A"/>
            <path d="m54.408 68.442-4.897 4.834-6.477.21-11.884.067-.035 2.022c-.018 1.022.95 1.868 2.16 1.89l1.57.027a7.946 7.946 0 0 0 3.37-.675l3.446-1.54c.014 0 .027.002.04.003l6.914.12a4.37 4.37 0 0 0 3.781-2.053l3.055-4.886-1.043-.019" fill="#241D1A"/>
            <path d="m54.922 68.451-2.85 4.56a4.369 4.369 0 0 1-3.782 2.053l-6.913-.12c-.014 0-.027-.002-.04-.003l-3.446 1.54a7.945 7.945 0 0 1-3.37.675l-1.57-.028a2.413 2.413 0 0 1-1.493-.53c.384.509 1.051.853 1.817.866l1.57.028a7.946 7.946 0 0 0 3.37-.675l3.446-1.54c.014 0 .027.002.04.003l6.914.12a4.37 4.37 0 0 0 3.781-2.053l3.055-4.886-.529-.01" fill="#10100E"/>
            <path d="m33.897 73.824-6.977-.394a1.815 1.815 0 0 0-.19 0l6.907.39a1.502 1.502 0 0 1-.052 3l-6.917.15c.063.005.126.007.19.006l6.987-.15a1.502 1.502 0 0 0 .052-3.002" fill="#10100E"/>
            <path d="M59.576 80.31a4.537 4.537 0 1 1 .158-9.071 4.537 4.537 0 0 1-.158 9.072zm.198-11.325a6.79 6.79 0 1 0-.237 13.58 6.79 6.79 0 0 0 .237-13.58z" fill="#241D1A"/>
            <path d="m62.18 78.277-1.006-1.444c.204-.291.326-.644.332-1.026l-.002-.078 1.655-.555a3.543 3.543 0 0 1-.98 3.103zm-4.188.64 1.046-1.398a1.845 1.845 0 0 0 1.183.017l.997 1.432a3.54 3.54 0 0 1-1.625.361 3.537 3.537 0 0 1-1.601-.413zM56.1 75.712c.004-.229.03-.451.075-.667l1.634.613c-.002.028-.006.055-.006.083-.007.386.105.746.302 1.046l-1.054 1.407a3.542 3.542 0 0 1-.951-2.482zm3.023-3.453-.03 1.752a1.854 1.854 0 0 0-.837.55l-1.649-.618a3.557 3.557 0 0 1 2.516-1.684zm3.643 1.796-1.668.56a1.853 1.853 0 0 0-.821-.584l.03-1.752a3.558 3.558 0 0 1 2.459 1.776zm-3.033-2.817a4.537 4.537 0 1 0-.158 9.071 4.537 4.537 0 0 0 .158-9.071z" fill="#CDCECA"/>
            <path d="M60.247 75.785a.592.592 0 1 1-1.184-.02.592.592 0 0 1 1.184.02" fill="#241D1A"/>
            <path d="M66.09 71.538a.339.339 0 0 0 .088-.473 8.284 8.284 0 0 0-15.088 4.216.33.33 0 0 0 .323.35l1.405.024c.193.004.383-.045.55-.14l3.78-2.14a5.33 5.33 0 0 1 2.72-.692l4.072.071c.237.005.468-.065.664-.199l1.487-1.017" fill="#E79702"/>
            <path d="M61.065 68.345c.864.122 1.715.378 2.473.815.356.205.685.461.988.739.304.279.542.63.822.912a8.86 8.86 0 0 0-2.902-1.919 7.258 7.258 0 0 0-1.79-.473c-.498-.066-1.27-.189-1.753-.011.657-.241 1.482-.158 2.162-.063" fill="#E57E60"/>
            <path d="M53.223 75.319a8.284 8.284 0 0 1 7.35-7.743 8.284 8.284 0 0 0-9.484 7.706.33.33 0 0 0 .324.349l1.405.024c.167.003.332-.035.482-.107a.328.328 0 0 1-.077-.23" fill="#BD7B00"/>
            <path d="M48.876 74.289c-.24.036-.487.053-.74.049l-4.728-.083-15.353-.268-9.84-.171-.069-.002c-.64-.01-.43-.63-.343-1.053.172-.831.397-1.527.526-1.931.637-1.988 1.78-4.133 3.32-5.547 1.571-1.444 3.825-2.453 6.026-2.44l14.367.252c-2.734 1.357-4.327 3.467-4.54 5.244-.231 1.93.88 3.114 2.683 3.573 1.614.411 3.28.357 4.921.4.83.022 1.655.017 2.49-.032.892-.051 1.83-.147 2.562-.66 1.476-1.031 2.316-3.42 2.567-5.114.286-1.944-.01-3.933-.526-5.829-.174-.637-.374-1.276-.405-1.937-.015-.348-.023-.997.208-1.28.23-.284.327-.05.512.19 1.055 1.372 2.064 2.778 3.117 4.161.462.606.99 1.16 1.433 1.782.56.787 1.413 2.063.955 3.047-.231.496-.655.873-1.066 1.234l-.954.837c-.262.23-.51.462-.861.539-.327.072-.596 0-.906.191-.49.3-.702.89-1.033 1.33-.5.667-.967 1.325-1.545 1.932-.761.8-1.667 1.417-2.778 1.586" fill="#E79702"/>
            <path d="M52.022 61.027c.516 1.895.812 3.884.525 5.828a10.802 10.802 0 0 1-.9 2.967c.572-1.065.93-2.312 1.078-3.316.286-1.944-.01-3.933-.526-5.829-.174-.637-.374-1.276-.405-1.936-.018-.4.035-.813.18-1.182l-.008.01c-.275.442-.373.994-.349 1.52.03.661.23 1.3.405 1.938M44.69 72.347c.21.012.42.016.63.01-.072-.002-.143.001-.215-.003-.31-.02-.62-.022-.93-.025.172.004.344.007.515.018M37.087 68.332c-.231 1.93.88 3.114 2.682 3.573 1.326.337 2.686.361 4.039.383-1.216-.023-2.433-.073-3.623-.376-1.802-.459-2.914-1.642-2.683-3.573.213-1.777 1.806-3.887 4.54-5.244l-.415-.008c-2.734 1.358-4.328 3.468-4.54 5.245" fill="#BD242B"/>
            <path d="m53.281 63.791.534.01c.196.003.366.152.422.367l.066.253c.02.08.027.165.019.249l-.128 1.235c-.024.241-.204.422-.415.418l-.542-.01c-.115-.001-.206-.11-.204-.242l.036-2.044c.002-.132.097-.238.212-.236" fill="#F7C127"/>
            <path d="M54.197 65.745c-.025.241-.204.422-.415.419l-.542-.01c-.115-.002-.207-.11-.204-.243l-.003.16c-.002.132.089.24.204.243l.542.01c.21.003.39-.178.415-.419l.128-1.235a.724.724 0 0 0 0-.135l-.125 1.21" fill="#CEA331"/>
            <path d="M36.526 71.672c-.196.662-.831 1.096-1.521 1.084l-15.068-.263a.52.52 0 0 1-.48-.347c-.015.076-.028.15-.037.223a.521.521 0 0 0 .508.594l15.068.263c.69.012 1.326-.422 1.522-1.084.072-.245.109-.54.088-.883-.016.15-.043.288-.08.413" fill="#BD242B"/>
            <path d="M36.98 70.4c-.362-3.73-2.92-6.838-6.668-6.904-5.327-.093-10.175 5.23-10.512 8.127a.521.521 0 0 0 .508.594l15.068.264c.69.012 1.325-.422 1.521-1.085.08-.272.12-.602.083-.996" fill="#BD242B"/>
            <path d="M30.064 64.04c-5.328-.093-10.175 5.23-10.513 8.128a.521.521 0 0 0 .508.594l15.068.263c.69.012 1.326-.422 1.522-1.084.08-.273.12-.602.082-.996-.361-3.731-2.92-6.84-6.667-6.905z" fill="#FFBB3C"/>
            <path d="m21.195 69.844-.433-.008c-.158-.003-.31.092-.416.259l-.011.017a.405.405 0 0 1 .193-.05l.434.007c.062.002.112.075.11.165l-.018 1.08a.775.775 0 0 1-.082.34c.177-.067.31-.293.315-.566l.02-1.08c0-.09-.049-.163-.112-.164" fill="#BD242B"/>
            <path d="m20.221 70.17-.454.711a1.043 1.043 0 0 0-.151.538c-.004.173.092.315.213.317l.907.015c.23.004.421-.258.427-.586l.019-1.08c.001-.09-.048-.164-.111-.165l-.434-.008c-.157-.002-.309.092-.416.259" fill="#F7C127"/>
            <path d="M20.063 71.51c-.121-.002-.217-.144-.214-.317.004-.199.058-.39.152-.537l.443-.693a.583.583 0 0 0-.223.208l-.454.71a1.044 1.044 0 0 0-.151.538c-.004.173.092.315.213.317l.907.015c.14.003.267-.096.345-.247a.3.3 0 0 1-.111.022l-.907-.016" fill="#CEA331"/>
            <path d="M30.047 64.998c2.412.043 4.33 1.346 5.489 3.264-.914-2.267-2.857-3.911-5.426-3.956-3.349-.058-6.483 2.275-8.157 4.567 1.982-2.103 4.954-3.93 8.094-3.875" fill="#E57E60"/>
            <path d="m41.492 63.388-15.868-.277c-.105.03-.21.062-.314.095l16.025.28c.052-.033.103-.066.157-.098" fill="#BD242B"/>
            <path d="M54.157 64.456c.001.036 0 .072-.001.108-.04-.307-.328-.67-.668-.604.076-.015.154-.03.231-.029.131.002.366.102.4.237.023.094.036.19.038.288M21.059 70.51c-.004-.09-.005-.174-.028-.26-.024-.092-.114-.161-.196-.199-.095-.042-.171-.025-.268-.032.119.008.255.1.341.18a.446.446 0 0 1 .15.31M54.849 53.73a1.952 1.952 0 0 0-.11-.465c-.073-.223-.15-.444-.306-.599-.137-.136-.25-.311-.442-.339a.932.932 0 0 1 .613.402c.186.273.215.662.245 1" fill="#FAE8BE"/>
            <path d="m49.765 53.679.006-.788a.4.4 0 0 0-.016-.118l-.959-3.172a.149.149 0 0 0-.14-.105l-.223-.002c0-.125-.006-.251-.023-.375-.12-.863-.73-1.723-1.089-1.643-.363.082-.462 1.127-.352 1.874.105.711.476 1.668.843 1.648.255-.014.504-.502.59-1.09l.009.001c.047 0 .088.031.101.077l.87 2.975.013.094-.005.621c0 .035.028.064.063.064l.248.002a.064.064 0 0 0 .064-.063" fill="#CDCECA"/>
            <path d="m49.282 54.65-1.715 1.259c-.253.157-.722.14-.88-.114l-.015-.025a.714.714 0 0 1 .228-.984l1.757-1.096a.573.573 0 0 1 .856.367l.005.02c.05.22-.04.45-.23.57l-.006.003" fill="#272320"/>
            <path fill="#DCAB99" d="m42.968 69.83-.335 1.464 1.125.65 1.024-.34.285-1.738-2.1-.036"/>
            <path d="m42.29 71.25-.157.192a.77.77 0 0 0-.174.474l-.02 1.125a.354.354 0 0 0 .349.36l7.09.124.017-.43c.02-.494-.253-.952-.692-1.238a3.751 3.751 0 0 0-.441-.23 2.31 2.31 0 0 0-.347-.088c-.13-.02-.263-.034-.36-.05l-2.385-.392a.63.63 0 0 0-.36.068c-.276.145-.678.408-1.063.377a2.913 2.913 0 0 1-1.057-.354.303.303 0 0 0-.4.063" fill="#38396D"/>
            <path d="m42.288 73.4 7.09.125.017-.43v-.089l-7.452-.13-.003.165a.354.354 0 0 0 .348.36" fill="#CDCECA"/>
            <path d="M48.703 71.857a3.751 3.751 0 0 0-.441-.23 2.31 2.31 0 0 0-.525-.112c-.179.21-.416.535-.43.795-.013.228.012.479.038.66l2.05.036c-.014-.46-.28-.88-.692-1.149" fill="#FFFFFE"/>
            <path d="M42.86 70.634s-.386-.035-.414-.566c-.016-.31.147-.55.165-.853.1-1.633.137-3.309.431-4.928.186-1.022.384-2.01.908-2.955.056-.1.116-.207.102-.317-.014-.111-.137-.22-.264-.193-.475.104-1.126.066-1.647.057-2.272-.04-4.85.27-7.06-.287-.955-.24-1.862-.739-2.15-1.587-.17-.496-.234-1.156-.06-1.65a65.958 65.958 0 0 0 2.779-.274c.88-.104 1.776-.037 2.662.03 1.515.115 3.022.26 4.539.29 1.38.027 2.825.14 4.03.77 1.259.66 1.097 1.828.874 2.917-.162.793-2.385 9.255-2.485 9.309-.1.054-.122.36-.425.271-.303-.089-1.984-.034-1.984-.034" fill="#38396D"/>
            <path fill="#F3B99F" d="m42.198 70.093-.334 1.464 1.124.65 1.024-.34.286-1.738-2.1-.036"/>
            <path d="m41.52 71.514-.156.191a.77.77 0 0 0-.174.474l-.02 1.125a.354.354 0 0 0 .348.36l7.09.124.018-.43c.02-.494-.253-.952-.693-1.238a3.744 3.744 0 0 0-.441-.23 2.304 2.304 0 0 0-.347-.088c-.13-.02-.262-.033-.36-.05L44.4 71.36a.628.628 0 0 0-.36.068c-.276.145-.677.408-1.063.377a2.908 2.908 0 0 1-1.057-.354.303.303 0 0 0-.4.063" fill="#3C4E8E"/>
            <path d="m41.518 73.664 7.09.124.018-.43v-.089l-7.453-.13-.003.165a.354.354 0 0 0 .348.36" fill="#CDCECA"/>
            <path d="M47.933 72.12a3.744 3.744 0 0 0-.441-.23 2.304 2.304 0 0 0-.347-.088c-.06-.01-.12-.017-.178-.024-.178.21-.415.535-.43.795a3.49 3.49 0 0 0 .039.66l2.05.036c-.014-.46-.28-.88-.693-1.149" fill="#FFFFFE"/>
            <path d="M42.197 70.65a3.832 3.832 0 0 1-.298-.132c-.048-.024-.099-.05-.123-.098-.105-.201.069-.969.094-1.214.053-.52.13-1.043.23-1.556.3-1.525-.093-3.147.17-4.694.087-.516.323-.995.375-1.507a.174.174 0 0 0-.003-.075c-.091-.26-1.49-.027-1.703.003-.55.077-1.096.184-1.64.304-.892.197-1.793.292-2.71.341-1.287.068-2.777-.332-3.755-1.216-.685-.618-.712-1.52-.749-2.381-.01-.234-.112-1.729.303-1.721l6.226.108s.14.423.781.519c2.302.342 4.633-.068 6.717 1.03 1.26.663 1.098 1.836.875 2.932-.162.796-2.387 9.3-2.486 9.354-.1.054-.122.362-.425.273-.726-.013-1.26-.024-1.88-.27" fill="#404283"/>
            <path d="M38.749 52.54c.34.35.752.61 1.287.688 1.188.175 2.383.284 3.554.579l1.257.317c.241.061.482.122.728.155.62.083 1.186.308 1.825.31.066 0 .138-.003.19-.046.207-.174.52-.38.63-.64.047-.113.08-.193.14-.278.012-.017.085-.113.113-.138a2.703 2.703 0 0 0-.67 0c-.371.04-.754.035-1.125.018-.326-.015-.55-.173-.837-.31-.262-.127-.52-.266-.79-.374a27.648 27.648 0 0 1-2.555-1.15c-.565-.292-1.153-.58-1.79-.676-.078-.011-.159-.017-.231-.047-.252-.107-.233-.747-.295-.983-.045-.173-.193-.658-.376-.733-.066-.027-.142-.007-.21.014-.563.18-1.078.542-1.59.834-.155.089-.439.299-.463.495-.01.085.033.166.076.24.329.587.661 1.243 1.132 1.726" fill="#DCAB99"/>
            <path d="M40.24 46.667a3.66 3.66 0 0 0-.13-.684c-.106-.358-.387-.635-.657-.894-.498-.48-.98-1.041-1.534-1.455-.348-.26-.899-.808-1.382-.704a.252.252 0 0 0-.105.063c-1.668 1.429-2.769 3.578-2.984 5.751a39.297 39.297 0 0 1-.726 4.464c-.212.978-.39 1.97-.642 2.935-.067.255-.272.656-.207.91a.363.363 0 0 0 .097.147c1.475 1.59 4.663.65 6.561.528.35-.023.652-.358.743-.683.5-1.792.492-3.77.694-5.615.105-.96.185-1.922.24-2.886.034-.6.094-1.255.032-1.877" fill="#E79702"/>
            <path d="M44.07 38.79c.117-.024.251-.048.345.026.099.078.102.224.096.35-.058 1.13-.22 2.346-.992 3.175a2.708 2.708 0 0 1-1.507.81c-.13.023-.268.044-.399.034-.163-.013-.328 0-.49-.023a2.135 2.135 0 0 1-.535-.154c-.122-.052-.257-.075-.38-.13-.055-.023-.163-.065-.172-.135a1.49 1.49 0 0 1-.08.71c-.044.116-.102.227-.123.349-.044.248.017 1.192-.454.622-.407-.492-1-.756-1.523-1.1-.338-.222-.584-.294-.33-.656.238-.342.592-.515.832-.857l.014-.02c.242-.355.393-.772.424-1.2-.05.059-.129-.04-.141-.115-.081-.495-.483-1.676.479-1.511.244.041.455.206.594.41-.01-.615.01-1.16.8-1.097.267.021.522.112.774.202.422.151.865.396 1.324.49.503.101.957-.079 1.445-.18" fill="#F2C09D"/>
            <path d="M37.489 40.105a.37.37 0 0 1-.082.176c-.004-.484-.235-.853-.33-1.311-.09-.434-.041-.797.027-1.222a.382.382 0 0 0-.14.222c0-.14.01-.282.048-.417.097-.335.415-.538.639-.785.366-.403.657-.873.853-1.381l.114.242c.495-.305 1.102-.387 1.682-.338.58.048 1.14.22 1.697.39l-.15.061c-.013.005.8.467.917.494.333.077.693.182 1.035.172.36-.011.716-.048 1.074-.083.294-.028.592.018.887-.042a.486.486 0 0 1-.254.135c.343-.064.533.02.844-.223-.33 1.065-.633 2.299-1.702 2.875-.79.427-1.705.065-2.513-.114-.474-.106-.991-.367-1.46-.413-.355-.035-.502.214-.564.524-.04.199-.114.343-.209.515-.112.205-.08.311-.354.27.043-.144.129-.443.033-.588-.112-.17-.331-.034-.457.053a.408.408 0 0 0-.103.09c-.06.085-.05.198-.048.301.001.184-.044.322-.106.494-.019.05-.036.109-.007.154.023.035.07.048.112.043.041-.004.08-.024.117-.044-.034.018-.044.195-.057.236-.035.115-.089.233-.144.34-.075.148-.16.29-.242.435-.094.165-.19.328-.299.482-.061.087-.097.177-.193.232-.03.017-.15.045-.163.067.045-.082-.012-.21-.023-.296a4.467 4.467 0 0 0-.325-1.24c-.073-.164-.098-.335-.154-.506" fill="#1B1A19"/>
            <path d="M38.037 52.775c.34.35.752.609 1.288.687 1.187.175 2.383.283 3.554.58l1.257.316c.24.061.481.122.727.155.238.032.486.08.703.192.147.076.267.193.411.274.064.035.13.056.182.104.092.085.174.205.293.254.024.01.05.018.075.014.045-.007.043-.026.056-.061.17-.463.828-.524 1.187-.247.081.062.152.136.216.215.035.045.078.086.105.137.037.073.002.09-.047.14a.035.035 0 0 0-.01.019c-.008.047.084.072.117.067.036-.006.074.004.108-.01a.323.323 0 0 0 .082-.057c.07-.062.086-.142.077-.232a.983.983 0 0 0-.056-.26c-.012-.029-.028-.057-.044-.084-.019-.03-.037-.062-.055-.093.01-.004.02.003.027.01.053.045.115.097.151.157.033.054.032.097.032.158 0 .006 0 .012.004.017.004.005.01.007.017.008.083.02.167.065.247.01.15-.102.09-.362-.002-.479-.025-.038-.06-.056-.085-.1.004.022.127.082.144.105a.365.365 0 0 1 .079.177c.008.066.194.021.25-.027.057-.048.054-.114.045-.182-.015-.114-.095-.198-.16-.288.067.091.185.118.187.26 0 .038.153.027.177-.049.026-.081-.003-.182-.031-.256-.03-.077-.09-.162-.134-.233a.73.73 0 0 0-.209-.225 1.781 1.781 0 0 0-.942-.274c-.159 0-.32-.02-.477-.017-.163.004-.33.046-.492.064-.391.042-.615.123-.988-.091a20.112 20.112 0 0 0-2.838-1.325c-.94-.36-1.897-.724-2.888-.92-.422-.085-.753-.368-.836-.808-.059-.307-.185-.614-.296-.905-.031-.083-.071-.172-.153-.206-.066-.027-.141-.007-.21.014-.563.18-1.078.543-1.589.834-.156.089-.44.299-.464.495-.01.085.034.166.076.24.329.587.661 1.242 1.132 1.726" fill="#F3B99F"/>
            <path d="m38.81 43.468-.013-.008a22.681 22.681 0 0 0-1.566-1.024.403.403 0 0 0-.2-.077c-.08-.001-.153.046-.219.093a7.77 7.77 0 0 0-.362.27.51.51 0 0 0-.14.147c-.044.08-.027.182.023.255.07.1.193.144.307.187 1.032.391 1.852 1.184 2.64 1.956l1.229 1.203c.138-.602-.033-1.245-.356-1.772-.153-.248-.392-.438-.608-.633a9.443 9.443 0 0 0-.736-.597" fill="#BD7B00"/>
            <path d="M39.457 50.014a.086.086 0 0 1-.01.042c-.017.027-.05.039-.08.049a3.89 3.89 0 0 0-.418.162.727.727 0 0 1-.16.05c-.368.054-.724.215-1.086.332-.336.11-.7.214-1.046.283-.018.003-.038.006-.053-.003-.014-.009-.02-.024-.026-.039a12.841 12.841 0 0 1-.787-2.908c-.067-.447-.135-.901-.07-1.348.126-.856.865-1.566 1.761-1.243.452.163.853.559 1.033 1.002.467 1.148.707 2.357.936 3.568a.252.252 0 0 1 .006.053" fill="#C27F01"/>
            <path d="M40.17 41.996c.085.427.401.826.759 1.051a.67.67 0 0 0 .252.094c.043.006.091.017.135.024.051.008.068.013.118.013.011.036.015.043.01.078a.193.193 0 0 1-.067.101.376.376 0 0 1-.235.08c-.341.013-.837-.215-1.068-.463-.073-.078-.593-.734-.471-.817a.945.945 0 0 1 .568-.161" fill="#1B1A19"/>
            <path d="M44.511 34.944a2.45 2.45 0 0 0-.125-.163c-.39-.462-.888-.862-1.446-1.1a7.65 7.65 0 0 0-1.399-.438c-1.92-.414-4.265.447-5.243 2.194-.89 1.586-.735 3.648.221 5.168a3.716 3.716 0 0 0 1.87 1.516c.6.224 1.55.59 2.13.12.155-.126.18-.352.166-.551-.15-2.171.877-4.851 3.327-5.128.243-.028.498-.033.714-.15.085-.046.164-.114.192-.206.111-.364-.163-.916-.407-1.262" fill="#E79702"/>
            <path d="M40.004 39.77a.906.906 0 1 1-1.812-.032.906.906 0 0 1 1.812.031" fill="#1B1A19"/>
            <path d="M39.562 39.761a.464.464 0 1 1-.928-.016.464.464 0 0 1 .928.016" fill="#CDCECA"/>
            <path d="M39.303 39.757a.205.205 0 1 1-.41-.007.205.205 0 0 1 .41.007" fill="#241D1A"/>
            <path d="M39.262 33.732c.48-.132.981-.187 1.479-.172.584.017 1.172.185 1.728.355-1.597-.262-3.208-.147-4.615.727-.352.22-.754.514-.982.866.216-.379.515-.709.852-.98.339-.272.719-.503 1.125-.66.134-.052.272-.097.413-.136" fill="#E57E60"/>
        </g>
    </g>
</svg>
