<svg xmlns="http://www.w3.org/2000/svg" width="43" height="42" viewBox="0 0 43 42">
    <g fill="#DC5D54" fill-rule="nonzero">
        <path d="M38.683 30.218a.814.814 0 0 0-1.05-.49l-8.493 3.17a.829.829 0 0 0 .282 1.6c.094 0 .19-.016.283-.05l8.494-3.17a.829.829 0 0 0 .484-1.06zM27.853 34.258a.814.814 0 0 0-1.049-.489l-.36.134a.829.829 0 0 0 .283 1.601c.094 0 .19-.016.283-.051l.36-.134a.828.828 0 0 0 .483-1.06zM38.683 26.852a.814.814 0 0 0-1.05-.489l-6.712 2.505a.829.829 0 0 0 .283 1.6c.094 0 .19-.016.283-.05l6.712-2.505a.829.829 0 0 0 .484-1.06zM38.683 23.522a.814.814 0 0 0-1.05-.489l-6.712 2.505a.829.829 0 0 0 .283 1.6c.094 0 .19-.016.283-.05l6.712-2.505a.829.829 0 0 0 .484-1.061z"/>
        <path stroke="#DC5D54" stroke-width=".3" d="M41.466 8.411L21.783 1.067a.809.809 0 0 0-.566 0L1.534 8.411A.816.816 0 0 0 1 9.187v23.628c0 .346.213.655.534.775l19.683 7.344a.808.808 0 0 0 .565 0l19.684-7.344a.825.825 0 0 0 .534-.775V9.186a.825.825 0 0 0-.534-.775zM20.683 38.973l-18.05-6.735V10.371l3.676 1.371V21.75c0 .345.213.655.534.774l8.82 3.292a.808.808 0 0 0 .75-.098.829.829 0 0 0 .35-.677v-9.397l3.92 1.462v21.868zm-5.554-23.94v8.822l-7.187-2.682v-8.821l7.187 2.681zM9.485 11.16l6.461-2.41 6.462 2.41-6.462 2.41-6.461-2.41zM21.5 15.65l-3.203-1.196 6.753-2.52a.825.825 0 0 0 .534-.774.825.825 0 0 0-.534-.775l-8.821-3.29a.81.81 0 0 0-.566 0l-8.546 3.188-2.94-1.097L21.5 2.723l17.324 6.463L21.5 15.65zm18.867 16.588l-18.05 6.735V17.105l18.05-6.734v21.867z"/>
    </g>
</svg>
