<svg xmlns="http://www.w3.org/2000/svg" width="31" height="42" viewBox="0 0 31 42">
    <path fill="#DC5D54" fill-rule="nonzero" stroke="#DC5D54" stroke-width="1.2" d="M29.585 3.097c-.302-.123-7.486-2.968-13.076.03-4.429 2.378-12.204.594-14.19.078V1.667A.662.662 0 0 0 1.658 1 .662.662 0 0 0 1 1.667v2c0 .009.005.017.005.026 0 .008-.005.015-.005.023V40.333c0 .369.295.667.66.667.364 0 .658-.298.658-.667v-15.75c1.498.378 4.763 1.088 8.152 1.088 2.344 0 4.745-.34 6.657-1.366 5.044-2.707 11.9.003 11.97.03a.648.648 0 0 0 .614-.068c.18-.123.289-.33.289-.551v-20a.666.666 0 0 0-.415-.619zm-.903 19.68c-2.149-.692-7.676-2.064-12.173.35-4.428 2.377-12.2.594-14.19.078V4.583c2.539.641 10.137 2.229 14.808-.278 4.328-2.322 9.99-.656 11.555-.12v18.592z"/>
</svg>
