<?xml version="1.0" encoding="UTF-8"?>
<svg width="50px" height="51px" viewBox="0 0 50 51" version="1.1" xmlns="http://www.w3.org/2000/svg" xmlns:xlink="http://www.w3.org/1999/xlink">
    <!-- Generator: Sketch 63.1 (92452) - https://sketch.com -->
    <title>singlestore_ic</title>
    <desc>Created with Sketch.</desc>
    <g id="Desktop-Version" stroke="none" stroke-width="1" fill="none" fill-rule="evenodd">
        <g id="Yelo_Home_NewV" transform="translate(-447.000000, -1195.000000)">
            <g id="singlestore_ic" transform="translate(447.000000, 1195.098328)">
                <path d="M25,50 C38.8071179,50 50,38.8071179 50,25 C50,11.1928813 38.8071179,0 25,0 C11.1928813,0 0,11.1928813 0,25 C0,38.8071179 11.1928813,50 25,50 Z" id="Ellipse-22" fill="#FFE3DE"></path>
                <g id="github" transform="translate(11.875000, 11.875000)">
                    <path d="M0,0 L26.25,0 L26.25,26.25 L0,26.25 L0,0 Z" id="Rectangle_57" opacity="9.99999975e-05"></path>
                    <path d="M11.9561768,13.1121368 L11.9561768,4.51151162 C11.9563842,3.91136944 12.442934,3.42498779 13.043052,3.42498779 C13.6431699,3.42498779 14.1297198,3.91136962 14.1299273,4.51148753 L14.1299266,12.2133869 L19.5186773,17.6015114 L21.8980517,15.2221387 C22.0536171,15.0671706 22.2871232,15.0209759 22.4899744,15.1050424 C22.6928261,15.1891089 22.8252064,15.3869318 22.825551,15.6065135 L22.825551,21.356514 C22.825551,21.6568167 22.5821053,21.9002628 22.2818004,21.9002628 L16.5318011,21.9002628 C16.3123559,21.9006835 16.1141681,21.7691514 16.0293104,21.5667772 C15.9444524,21.3644031 15.98956,21.1308569 16.1436774,20.9746378 L17.9811766,19.1383863 L11.9561768,13.1121368 Z" id="Path_152" fill="#FF715B"></path>
                    <path d="M10.0506516,20.9745455 C10.2056203,21.1301125 10.2518126,21.3636179 10.1677473,21.5664689 C10.083681,21.7693203 9.88585689,21.9017017 9.66627717,21.9020462 L3.83690179,21.9020462 C3.53659689,21.9020462 3.29315186,21.6586002 3.29315186,21.3582956 L3.29315186,15.5289197 C3.29349935,15.3093302 3.42588304,15.1115083 3.62873626,15.0274456 C3.83158935,14.9433827 4.06509493,14.9895793 4.22065767,15.1445508 L6.33252675,17.2570456 L9.6244015,14.4720459 L11.0287762,16.1314207 L7.87502667,18.79892 L10.0506516,20.9745455 Z" id="Path_153" fill="#FF715B" opacity="0.300000012"></path>
                </g>
            </g>
        </g>
    </g>
</svg>